<svg width="48" height="48" viewBox="0 0 48 48" fill="none" xmlns="http://www.w3.org/2000/svg">
<rect width="48" height="48" rx="24" fill="#2F79E4"/>
<path d="M28.9395 16.0607C29.3373 15.6628 29.8768 15.4393 30.4395 15.4393C30.718 15.4393 30.9939 15.4942 31.2512 15.6008C31.5086 15.7074 31.7425 15.8637 31.9395 16.0607C32.1364 16.2576 32.2927 16.4915 32.3993 16.7489C32.5059 17.0062 32.5608 17.2821 32.5608 17.5607C32.5608 17.8392 32.5059 18.1151 32.3993 18.3725C32.2927 18.6298 32.1364 18.8637 31.9395 19.0607L19.4395 31.5607L15.4395 32.5607L16.4395 28.5607L28.9395 16.0607Z" stroke="white" stroke-width="2" stroke-linecap="round" stroke-linejoin="round"/>
<path d="M19.5 32.5607H28.5" stroke="white" stroke-width="2" stroke-linecap="round" stroke-linejoin="round"/>
</svg>
