<svg width="48" height="48" viewBox="0 0 48 48" fill="none" xmlns="http://www.w3.org/2000/svg">
<path d="M24 32.3905H34" stroke="#121212" stroke-width="1.5" stroke-linecap="round" stroke-linejoin="round"/>
<path d="M24 32.3905H34" stroke="black" stroke-opacity="0.2" stroke-width="1.5" stroke-linecap="round" stroke-linejoin="round"/>
<path d="M24 32.3905H34" stroke="black" stroke-opacity="0.2" stroke-width="1.5" stroke-linecap="round" stroke-linejoin="round"/>
<path d="M24 32.3905H34" stroke="black" stroke-opacity="0.2" stroke-width="1.5" stroke-linecap="round" stroke-linejoin="round"/>
<path d="M29 14.0572C29.442 13.6152 30.0415 13.3668 30.6667 13.3668C30.9762 13.3668 31.2827 13.4278 31.5687 13.5463C31.8546 13.6647 32.1145 13.8383 32.3333 14.0572C32.5522 14.2761 32.7258 14.5359 32.8443 14.8219C32.9627 15.1078 33.0237 15.4143 33.0237 15.7239C33.0237 16.0334 32.9627 16.3399 32.8443 16.6259C32.7258 16.9118 32.5522 17.1717 32.3333 17.3905L18.4444 31.2794L14 32.3905L15.1111 27.9461L29 14.0572Z" stroke="#121212" stroke-width="1.5" stroke-linecap="round" stroke-linejoin="round"/>
<path d="M29 14.0572C29.442 13.6152 30.0415 13.3668 30.6667 13.3668C30.9762 13.3668 31.2827 13.4278 31.5687 13.5463C31.8546 13.6647 32.1145 13.8383 32.3333 14.0572C32.5522 14.2761 32.7258 14.5359 32.8443 14.8219C32.9627 15.1078 33.0237 15.4143 33.0237 15.7239C33.0237 16.0334 32.9627 16.3399 32.8443 16.6259C32.7258 16.9118 32.5522 17.1717 32.3333 17.3905L18.4444 31.2794L14 32.3905L15.1111 27.9461L29 14.0572Z" stroke="black" stroke-opacity="0.2" stroke-width="1.5" stroke-linecap="round" stroke-linejoin="round"/>
<path d="M29 14.0572C29.442 13.6152 30.0415 13.3668 30.6667 13.3668C30.9762 13.3668 31.2827 13.4278 31.5687 13.5463C31.8546 13.6647 32.1145 13.8383 32.3333 14.0572C32.5522 14.2761 32.7258 14.5359 32.8443 14.8219C32.9627 15.1078 33.0237 15.4143 33.0237 15.7239C33.0237 16.0334 32.9627 16.3399 32.8443 16.6259C32.7258 16.9118 32.5522 17.1717 32.3333 17.3905L18.4444 31.2794L14 32.3905L15.1111 27.9461L29 14.0572Z" stroke="black" stroke-opacity="0.2" stroke-width="1.5" stroke-linecap="round" stroke-linejoin="round"/>
<path d="M29 14.0572C29.442 13.6152 30.0415 13.3668 30.6667 13.3668C30.9762 13.3668 31.2827 13.4278 31.5687 13.5463C31.8546 13.6647 32.1145 13.8383 32.3333 14.0572C32.5522 14.2761 32.7258 14.5359 32.8443 14.8219C32.9627 15.1078 33.0237 15.4143 33.0237 15.7239C33.0237 16.0334 32.9627 16.3399 32.8443 16.6259C32.7258 16.9118 32.5522 17.1717 32.3333 17.3905L18.4444 31.2794L14 32.3905L15.1111 27.9461L29 14.0572Z" stroke="black" stroke-opacity="0.2" stroke-width="1.5" stroke-linecap="round" stroke-linejoin="round"/>
</svg>
