<?xml version="1.0" encoding="UTF-8"?>
<svg id="Layer_28" data-name="Layer 28" xmlns="http://www.w3.org/2000/svg" viewBox="0 0 1080 1920">
  <defs>
    <style>
      .cls-1 {
        stroke-linecap: round;
      }

      .cls-1, .cls-2 {
        fill: none;
        stroke: #000;
        stroke-miterlimit: 10;
        stroke-width: 6.91px;
      }

      .cls-3 {
        font-family: PretendardVariable-ExtraBold, 'Pretendard Variable';
        font-size: 115.14px;
        font-variation-settings: 'wght' 800;
        font-weight: 700;
      }

      .cls-4 {
        fill: #5c96ea;
      }

      .cls-4, .cls-5, .cls-6, .cls-7 {
        stroke-width: 0px;
      }

      .cls-5 {
        fill: #cdced6;
      }

      .cls-6 {
        fill: #71d0ba;
      }

      .cls-7 {
        fill: #fff;
      }
    </style>
  </defs>
  <rect class="cls-7" x="-100.5" y="-145.78" width="1281.01" height="2227.96"/>
  <path class="cls-4" d="m814.51,1230.38v-12.98s-.6,5.92,0,12.98Zm0-155.52v89.08s21.01-11.46,33.14-28.91c0,0,21.04-13.64-33.14-60.18Zm266.16-598.85c-48.04-54.85-100.36-89.82-100.36-89.82,0,0-249.79-170.16-439.6-6.54-16.26,14.02-31.99,28.6-47.13,43.63h186.75v535.39l95.6,58.32,3.78,2.31h.01s1.38.85,1.38.85l2.57-2.98c12.28-5.71,24.93-3.92,29.26-3.05.92.18,1.57.98,1.57,1.91v17.27s43.81,31.71,60.34,80.07c6.02,17.62-.07,37.14-15.12,48.09-17.68,12.86-39.21,33.22-34.47,53.73,7.8,33.82,22.53,24,22.53,24,0,0,2.37,14.91-17.27,14.54-11.67-.21-15.12-13.03-16-23.38v34.77s89.19,18.86,12.46,221.12c123.78-75.72,230.73-173.6,285.33-290.87,146.17-313.97,19.64-660.84-31.63-719.38Zm-296.48,513.35c-22.68,0-41.06-25.41-41.06-56.75s18.38-56.75,41.06-56.75,41.07,25.41,41.07,56.75-18.39,56.75-41.07,56.75Zm30.32,85.5v89.08s21.01-11.46,33.14-28.91c0,0,21.04-13.64-33.14-60.18Zm0,155.52v-12.98s-.6,5.92,0,12.98Zm-55.53-165.66c1.14-11.22,3.64-20.05,6.99-26.98l.06-.07c-.78.03-1.57.05-2.35.06-1.21.01-2.43,0-3.64-.03-28.22-.72-55.65-13.99-79.69-31.97v189.67h-37.77c21.47,42.73,45.09,107.41,6.81,131.3h-3.83c-1,2.11-2.07,4.22-3.23,6.33-.41.77-.84,1.53-1.28,2.29-9.06,15.76-22.63,31.45-41.77,46.76,11.28,30.89,22.38,62.2,18.99,56.95,0,0-16.47-19.3-35.12-45.05-23.17,15.83-52.75,31.16-89.97,45.64-48.24,18.76-92.35,36.41-131.97,52.94-1.2.5-2.39,1-3.58,1.49-239.18,100.09-311.27,158.7-127.64,173.23,118.18,9.36,329.23-39.41,519.5-137.49l-8.88.56c-.35.07-.59-.34-.36-.62,9.72-11.46,23.9-15.14,37.95-15.21t.01,0s0,0,.01,0t.01,0s0,0,.01,0t.01,0s0,0,.01,0c0,0,0,0,0,0,12.23-6.71,24.27-13.62,36.23-20.74v-228.63s-62.07-136.08-55.53-200.44Zm-304.56,468.8c-9.49-1.5-52.04-7.54-88.02-1.62-3.95.65-6.45-4.17-3.57-6.96,9.93-9.6,34.57-20.05,91.76,8.02.3.15.16.61-.17.56Zm165.77-51.49c-22.92,4.84-70.77,14.69-38.39,5.64,28.5-7.96,33.56-23.07,33.92-31.82.06-1.4,1.92-1.84,2.58-.59l7.67,14.41c2.67,5.01-.21,11.19-5.77,12.36Z"/>
  <path class="cls-4" d="m296.47,1450.23c0,32.83-78.99,62.78-109.17,62.78-31.69,0-60.75-20.73-60.54-35.63.25-17.56,16.32-35.42,47.67-45.14,29.77-9.22,122.03-14.84,122.03,17.99Z"/>
  <path class="cls-4" d="m173.24,1395.9c0,18.06-36.12,33.48-59.75,33.48-17.44,0-33.74-10.34-33.63-18.54.14-9.66,8.98-19.49,26.23-24.84,16.38-5.08,67.15-8.16,67.15,9.9Z"/>
  <rect class="cls-4" x="-36.01" y="688.7" width="532.01" height="28.79"/>
  <rect class="cls-6" x="358.13" y="736" width="278.85" height="28.79"/>
  <rect class="cls-5" x="180.25" y="869.43" width="278.85" height="28.79"/>
  <rect class="cls-4" x="497.55" y="869.43" width="139.43" height="28.79"/>
  <rect class="cls-4" x="-29.41" y="974.98" width="139.43" height="28.79"/>
  <rect class="cls-6" x="-36.01" y="822.31" width="532.01" height="28.79"/>
  <path class="cls-5" d="m308.31,1033.33c0,6.59.95,12.89,2.69,18.69H46.74v-28.79h262.33c-.5,3.26-.76,6.64-.76,10.09Z"/>
  <path class="cls-5" d="m578.74,1023.24v28.79h-191.01c.63-2.11,1.16-4.28,1.58-6.51.73-3.91,1.11-7.99,1.11-12.18,0-3.45-.26-6.83-.76-10.09h189.08Z"/>
  <rect class="cls-6" x="-44.89" y="1114.28" width="209.36" height="28.79"/>
  <path class="cls-6" d="m636.98,974.98v28.79h-253.7c-7.39-13.82-19.82-22.88-33.91-22.88-11.01,0-21,5.53-28.37,14.53-2.07,2.52-3.93,5.32-5.55,8.35h-104.32v-28.79h425.85Z"/>
  <path class="cls-2" d="m604.15,1048.86c-20.37,0-36.89,20.38-36.89,45.52s16.52,45.52,36.89,45.52,36.89-20.38,36.89-45.52-16.52-45.52-36.89-45.52Zm0,0c-20.37,0-36.89,20.38-36.89,45.52s16.52,45.52,36.89,45.52,36.89-20.38,36.89-45.52-16.52-45.52-36.89-45.52Z"/>
  <path class="cls-2" d="m615.92,919.38l64.43,39.3V423.29H-54.86v772.1h383.03c.39-53.92,16.21-85.78,16.21-85.78,0,0,27.55,7.37,50.87,53.62l16.41-95.81c.07-.45.72-.47.82-.03,3.07,12.81,19.25,84.93,5.85,128.01h149.67c2.83-17.97,9.23-33.43,21.8-40.16.56-.02,1.12-.03,1.68-.03.84,0,1.67.02,2.49.06,18.46.89,33.37,11.62,41.91,27.33,2.15,3.97,4.41,8.26,6.69,12.79h37.77v-189.67c-30.76-23.01-55.98-53.74-70.2-75.78-8.56-13.26.7-13.66,5.77-10.56Zm-266.55,166.39c-17.52,0-32.48-14.02-38.37-33.75-1.74-5.8-2.69-12.11-2.69-18.69,0-3.45.26-6.83.76-10.09,1.08-7.11,3.29-13.71,6.38-19.48,1.62-3.03,3.48-5.83,5.55-8.35,7.37-9,17.36-14.53,28.37-14.53,14.09,0,26.52,9.06,33.91,22.88,3.09,5.77,5.3,12.37,6.38,19.48.5,3.26.76,6.64.76,10.09,0,4.2-.39,8.27-1.11,12.18-.42,2.23-.94,4.4-1.58,6.51-5.9,19.74-20.85,33.75-38.37,33.75Zm254.78,54.12c-20.37,0-36.89-20.38-36.89-45.52s16.52-45.52,36.89-45.52,36.89,20.38,36.89,45.52-16.52,45.52-36.89,45.52Z"/>
  <path class="cls-2" d="m390.43,1033.33c0,4.2-.39,8.27-1.11,12.18-.42,2.23-.94,4.4-1.58,6.51-5.9,19.74-20.85,33.75-38.37,33.75s-32.48-14.02-38.37-33.75c-1.74-5.8-2.69-12.11-2.69-18.69,0-3.45.26-6.83.76-10.09,1.08-7.11,3.29-13.71,6.38-19.48,1.62-3.03,3.48-5.83,5.55-8.35,7.37-9,17.36-14.53,28.37-14.53,14.09,0,26.52,9.06,33.91,22.88,3.09,5.77,5.3,12.37,6.38,19.48.5,3.26.76,6.64.76,10.09Z"/>
  <path class="cls-2" d="m825.26,932.62c0,31.34-18.39,56.75-41.07,56.75s-41.06-25.41-41.06-56.75,18.38-56.75,41.06-56.75,41.07,25.41,41.07,56.75Z"/>
  <path class="cls-2" d="m641.04,1094.38c0,25.14-16.52,45.52-36.89,45.52s-36.89-20.38-36.89-45.52,16.52-45.52,36.89-45.52,36.89,20.38,36.89,45.52Z"/>
  <path class="cls-1" d="m814.51,1163.95v-147.89c0-.93-.65-1.73-1.57-1.91-4.33-.88-16.98-2.66-29.26,3.05-.12.06-.24.12-.36.17-.04.02-.09.05-.13.07-1.16.56-2.33,1.19-3.47,1.89-.01,0-.02.01-.02.02"/>
  <path class="cls-1" d="m779.69,1019.35s0,0,.02,0c0,0,.02-.01.03-.02.35-.18,2.46-1.36,3.46-1.89.04-.02.09-.05.13-.07.33-.18.48-.25.36-.17l-2.57,2.98"/>
  <path class="cls-1" d="m766.03,1037.66l-.06.07c-3.35,6.93-5.85,15.76-6.99,26.98-6.55,64.36,55.53,200.44,55.53,200.44,0,0,89.19,18.86,12.46,221.12-2.71,7.12-5.6,14.46-8.69,22.03-.81,1.98-3.77,1.4-3.77-.74v-277.18"/>
  <path class="cls-1" d="m599.27,1382.08c-6.48-17.71-13.02-35.28-16.92-45.74-1.74-4.67,1.71-9.64,6.7-9.64h60.34c38.28-23.89,14.66-88.57-6.81-131.3-2.28-4.54-4.54-8.83-6.69-12.79-8.54-15.72-23.44-26.44-41.91-27.33-.82-.04-1.65-.06-2.49-.06-.56,0-1.12.01-1.68.03-12.57,6.72-18.97,22.19-21.8,40.16-4.64,29.36-4.54,58.92,3.14,80.88.84,1.73,1.45,3.72,1.75,6.03.47,3.66-.44.85-1.75-6.03-5.26-10.9-19.4-11-19.4-11-47.49,7.22-4.11,79.67,31.39,128.7"/>
  <path class="cls-1" d="m572.9,1282.3c.47,3.66-.44.85-1.75-6.03.84,1.73,1.45,3.72,1.75,6.03Z"/>
  <path class="cls-1" d="m599.27,1382.08c11.28,30.89,22.38,62.2,18.99,56.95,0,0-16.47-19.3-35.12-45.05"/>
  <line class="cls-1" x1="582.55" y1="1333.02" x2="680.34" y2="1333.02"/>
  <line class="cls-1" x1="641.04" y1="1333.02" x2="641.04" y2="1522.83"/>
  <line class="cls-1" x1="573.42" y1="1510.37" x2="683.04" y2="1530.55"/>
  <line class="cls-1" x1="572.48" y1="1533.83" x2="683.44" y2="1516.01"/>
  <path class="cls-1" d="m328.17,1195.4c-.23,31.4,4.78,70.29,21.2,114.72,23.99,64.94,34.76,80.32,8.26,183.93-2.44,9.51-5.18,19.77-8.26,30.88,4.16-11.16,8.11-21.95,11.84-32.37,27.43-76.59,43.37-132.88,52.33-169.12,9.29-37.58,9.04-76.93-1.11-114.29,0-.02,0-.03-.01-.05"/>
  <path class="cls-1" d="m418.34,1195.4c-1.55,5-3.51,9.61-5.93,13.7-4.47,7.53-10.52,13.26-18.58,16.31-51.61,19.53-43.46-48.73-38.5-75.33.58-3.12,4.85-3.6,6.11-.68,31.83,73.51,33.82,13.85,33.82,13.85h0s16.41-95.82,16.41-95.82c.07-.45.72-.47.82-.03,3.07,12.81,19.25,84.93,5.85,128.01Z"/>
  <path class="cls-1" d="m454.43,1533.51c-9.49-1.5-52.04-7.54-88.02-1.62-3.95.65-6.45-4.17-3.57-6.96,9.93-9.6,34.57-20.05,91.76,8.02.3.15.16.61-.17.56Z"/>
  <path class="cls-1" d="m620.2,1482.03c-22.92,4.84-70.77,14.69-38.39,5.64,28.5-7.96,33.56-23.07,33.92-31.82.06-1.4,1.92-1.84,2.58-.59l7.67,14.41c2.67,5.01-.21,11.19-5.77,12.36Z"/>
  <path class="cls-1" d="m822.56,1525.15l-73.06,4.63-8.88.56c-.35.07-.59-.34-.36-.62,9.72-11.46,23.9-15.14,37.95-15.21,0,0,.01,0,.01,0,0,0,.01,0,.01,0,0,0,.01,0,.01,0,0,0,.01,0,.01,0,0,0,.01,0,.01,0,0,0,.01,0,.01,0,0,0,0,0,0,0,18.72-.09,37.18,6.22,44.52,9.06.82.31.63,1.51-.24,1.57Z"/>
  <path class="cls-1" d="m798.04,1030.5c-10.67,4.51-21.38,6.76-32.01,7.17-.78.03-1.57.05-2.35.06-1.21.01-2.43,0-3.64-.03-28.22-.72-55.65-13.99-79.69-31.97-30.76-23.01-55.98-53.74-70.2-75.78-8.56-13.26.7-13.66,5.77-10.56l64.43,39.3,95.6,58.32,3.78,2.31h.01s1.38.85,1.38.85l16.92,10.32Z"/>
  <path class="cls-1" d="m859.73,1161.49c-17.68,12.86-39.21,33.22-34.47,53.73,7.8,33.82,22.53,24,22.53,24,0,0,2.37,14.91-17.27,14.54-11.67-.21-15.12-13.03-16-23.38v-66.43s21.01-11.46,33.14-28.91c0,0,21.04-13.64-33.14-60.18v-41.54s43.81,31.71,60.34,80.07c6.02,17.62-.07,37.14-15.12,48.09Z"/>
  <path class="cls-1" d="m814.51,1230.38c-.6-7.06,0-12.98,0-12.98"/>
  <text class="cls-3" transform="translate(497.55 558.55)"><tspan x="0" y="0">12</tspan></text>
  <path class="cls-7" d="m1006.17,661.39c0,21.81-52.47,41.71-72.52,41.71-21.06,0-40.36-13.77-40.22-23.67.16-11.66,10.84-23.53,31.67-29.99,19.78-6.13,81.07-9.86,81.07,11.95Z"/>
  <path class="cls-7" d="m1142,740.64c0,30.26-72.82,57.88-100.65,57.88-29.22,0-56.01-19.11-55.82-32.85.23-16.19,15.04-32.66,43.95-41.62,27.45-8.5,112.51-13.68,112.51,16.58Z"/>
  <path class="cls-7" d="m1054.49,589.31c0,12-23.99,22.24-39.69,22.24-11.59,0-22.41-6.87-22.34-12.32.09-6.42,5.96-12.95,17.43-16.5s44.61-5.42,44.61,6.58Z"/>
</svg>