<?xml version="1.0" encoding="UTF-8"?>
<svg xmlns="http://www.w3.org/2000/svg" viewBox="0 0 720 720">
  <defs>
    <style>
      .cls-1, .cls-2 {
        stroke-width: 0px;
      }

      .cls-2 {
        fill: #5c96ea;
      }
    </style>
  </defs>
  <g id="Layer_10" data-name="Layer 10">
    <path class="cls-2" d="m450.06,267.18h0l-6,16.26c-1.54,4.17,1.55,8.6,6,8.6h0c4.45,0,7.54-4.43,6-8.6l-6-16.26Z"/>
    <path class="cls-2" d="m450.06,404.02h0l-6,16.26c-1.54,4.17,1.55,8.6,6,8.6h0c4.45,0,7.54-4.43,6-8.6l-6-16.26Z"/>
    <path class="cls-2" d="m450.06,540.87h0l-6,16.26c-1.54,4.17,1.55,8.6,6,8.6h0c4.45,0,7.54-4.43,6-8.6l-6-16.26Z"/>
    <path class="cls-2" d="m513.12,670.38v26.52h-255.22v-20.22l30.02,3.58c-5.55-2.71-10.96-5.98-15.49-9.88h89.46l-4.59,7.99,56.48,2.88c1.54-.54,5.88-2.15,10.64-4.66-8.17.19-19.09-1.02-31.03-6.21h119.73Z"/>
    <path class="cls-2" d="m450.22,661.97c-1.1,0-2-.9-2-2v-14.54c0-1.1.9-2,2-2s2,.9,2,2v14.54c0,1.1-.9,2-2,2Z"/>
    <path class="cls-2" d="m443.66,664.3c-.51,0-1.02-.2-1.41-.59l-10.28-10.28c-.78-.78-.78-2.05,0-2.83s2.05-.78,2.83,0l10.28,10.28c.78.78.78,2.05,0,2.83-.39.39-.9.59-1.41.59Z"/>
    <path class="cls-2" d="m456.39,664.3c-.51,0-1.02-.2-1.41-.59-.78-.78-.78-2.05,0-2.83l10.28-10.28c.78-.78,2.05-.78,2.83,0s.78,2.05,0,2.83l-10.28,10.28c-.39.39-.9.59-1.41.59Z"/>
    <path class="cls-2" d="m327.3,67.85v190.46c-.83.27-1.67.57-2.53.9-5.13,1.98-10.77,5.15-16.76,10.08-3.05,5.51-29.31,55.56-6.58,100.32,7.06,13.9,10.98,32.25,11.72,54.72,2.91-15.41,6.09-32.61,9.16-49.93,1.87-10.56,3.53-20.18,4.99-28.94v40.8c-2.1,11.66-4.21,23.11-6.22,33.83,1.34.82,3.67,3.1,6.22,5.93v10.85c-3.28-4.13-5.99-7.05-7.73-8.81-3.07,16.26-5.82,30.38-7.78,40.37,1.12.34,2.22.71,3.31,1.11h-12.03c-7.11-51.76-47.05-86.9-47.46-87.25-1.46-1.27-1.62-3.48-.35-4.94,1.26-1.46,3.47-1.62,4.93-.36,1.54,1.33,32.73,28.72,45.55,71.88,1.4-23.5.46-54.4-10.55-76.09-10.67-21.01-12.83-46.29-6.23-73.09,1.45-5.92,3.17-11.29,4.89-15.93-17.36,21.36-36.28,58.57-53.33,122.56-.11.41-8.86,32.58,13.46,63.22H113.33V67.85h213.97Z"/>
    <path class="cls-2" d="m271.33,494.26c2.26,4.69,4.3,9.83,6.08,15.32H113.33v-15.32h158Z"/>
    <path class="cls-2" d="m292.77,494.26c-1.71,1.7-2.29,5.65-1.65,11.21.17,1.45.39,2.82.66,4.11h-7.13c-.19-1.06-.35-2.17-.48-3.31-.56-4.85-.32-8.86.71-12.01h7.89Z"/>
    <polygon class="cls-2" points="305.66 509.58 298.65 509.58 297.79 494.26 304.81 494.26 305.66 509.58"/>
    <path class="cls-2" d="m283.37,534.3c.84,5,1.5,10.12,1.96,15.32H113.33v-15.32h170.04Z"/>
    <path class="cls-2" d="m301.81,539.12c-.11,3.58-.31,7.08-.6,10.5h-7.04c.31-3.48.53-7.05.64-10.71.06-1.93,1.68-3.41,3.6-3.39,1.94.05,3.46,1.67,3.4,3.6Z"/>
    <path class="cls-2" d="m297.44,574.34c-1.03,4.6-2.21,9-3.5,13.2H113.33v-13.2h184.11Z"/>
  </g>
  <g id="Layer_2" data-name="Layer 2">
    <g>
      <g id="_레이어_2_2" data-name="레이어 2 2">
        <path class="cls-1" d="m458.77,208.32c-1.05-5.01-2.96-10.52-4.9-14.06-.85-1.55-3.23-5.43-4.85-7.4-1.26-1.48-4.56-4.69-6.3-6.19-3.15-2.69-10.47-6.61-13.65-7.57-1.97-.59-7.05-1.39-11.25-1.75-.28-.1-.58-.17-.89-.19-.71-.06-1.58-.05-2.52,0-.58-.01-1.1,0-1.54.04-.63.05-1.44.17-2.36.35-.36.05-.71.1-1.04.15-1.98.33-4.62,1.06-7.24,1.92-2.13.63-4.03,1.27-5.14,1.76-.49.21-1.05.5-1.65.83-.67.3-1.26.59-1.74.85-1.22.68-2.94,1.88-4.74,3.25-2,1.39-3.79,2.74-4.78,3.63-.51.45-1.11,1.03-1.76,1.7-.69.61-1.24,1.13-1.61,1.5-1.13,1.18-2.47,2.87-3.83,4.75-1.15,1.46-2.19,2.88-2.94,4.09-.5.8-1.12,1.9-1.77,3.16-.4.68-.77,1.34-1.09,1.94-.63,1.2-1.3,2.74-1.95,4.47-.68,1.6-1.25,3.13-1.62,4.39-.99,3.49-1.89,8.04-2.21,10.32v.04c-.01.07-.02.13-.03.19-.02.07-.02.14-.03.21l-.02.21c-.01.06-.01.12-.02.18-.01.1-.02.21-.02.31v.03c0,.17.02.34.04.51-.08.87-.14,1.74-.19,2.6v.02c-.11,2.63-.06,5.22.18,7.51v.04c.06.5.13,1.03.21,1.58.69,4.89,2.28,11.35,4.06,14.97,1.84,3.7,5.99,10.4,9.03,13.36,2.68,2.59,9.42,7.36,13.18,9.04,3.74,1.64,11.75,3.29,15.46,3.43.24.01.49.02.75.02,3.47,0,8.21-.74,11.79-1.56,1.5-.34,2.79-.69,3.7-1.01,3.44-1.22,10.45-4.88,13.99-7.62,2.14-1.66,5.68-5.03,8.26-7.87h.01c.86-.96,1.61-1.85,2.16-2.6.07-.09.14-.18.2-.28,0-.01.01-.01.01-.02,1.05-1.45,2.29-3.41,3.48-5.48,1.62-2.77,3.15-5.73,4.04-7.86,1.46-3.58,3.34-11.5,3.79-15.25.54-4.56.23-12.33-.66-16.64Zm-6.29,15.81c-.31,2.57-1.39,7.27-2.37,10.6-.34,1.14-.66,2.13-.94,2.81-.85,2.04-2.5,5.16-4.14,7.91,0,0-.01,0-.01.01-.92,1.55-1.84,2.98-2.6,4.04-.05.06-.09.13-.14.19-.32.43-.76.96-1.27,1.55h-.01c-1.76,1.99-4.41,4.63-6.46,6.42-.49.44-.95.82-1.35,1.13-.45.35-.99.72-1.59,1.12-3.17,2.07-8.03,4.58-10.43,5.42-2.66.93-10.01,2.3-13.66,2.17-2.92-.12-10.08-1.61-12.88-2.84-2.88-1.28-9.01-5.6-11.15-7.66-2.09-2.05-5.89-7.94-7.63-11.44-1.41-2.88-3.05-9.41-3.58-14.24-.03-.22-.05-.45-.07-.69l-.02-.26c-.05-.65-.08-1.32-.1-2.02v-.08c-.07-3.37.24-7.19.88-10.53.58-2.95,1.61-6.48,2.69-9.4.79-1.88,1.79-3.98,2.72-5.77,1.17-2.01,2.68-4.33,4.14-6.38,1.54-1.95,3.34-4.02,4.8-5.54,1.47-1.29,3.63-3.06,5.63-4.59,1.94-1.34,4.08-2.72,5.66-3.61,1.55-.68,3.66-1.47,5.78-2.17,2.38-.7,5.12-1.41,7.12-1.8,1.16-.16,2.26-.27,3.15-.32,3.4.09,10.32,1.02,12.41,1.64,2.1.64,8.63,4.06,11.1,6.18,1.57,1.35,4.6,4.33,5.48,5.37,1.14,1.37,3.22,4.7,4.1,6.28,1.59,2.93,3.27,7.8,4.18,12.12.72,3.51,1,10.64.56,14.38Z"/>
        <path class="cls-1" d="m368.65,234.56c-1.8,0-3.33-1.38-3.48-3.21l-.06-.72c0-.06,0-.11,0-.17l-.03-1.03c-.03-.17-.04-.34-.05-.51l-.07-3.16s0-.03,0-.05h0v-.02c0-.09,0-.19.01-.28h0s0,0,0-.01h0s.39-4.7.39-4.7c.16-1.93,1.85-3.35,3.78-3.2,1.83.15,3.21,1.68,3.21,3.49,0,.1,0,.19-.01.29l-.37,4.49.19,5.01c.16,1.93-1.28,3.62-3.2,3.77-.1,0-.19.01-.29.01Z"/>
        <path class="cls-1" d="m368.79,235.94c-1.85,0-3.4-1.45-3.49-3.32l-.05-.94c-.04-.16-.07-.33-.08-.5l-.05-.5c0-.07-.01-.15-.01-.22l-.15-4.66c-.06-1.92,1.43-3.53,3.35-3.61,1.87-.09,3.54,1.4,3.64,3.32l.34,6.76c.1,1.93-1.39,3.58-3.32,3.67-.06,0-.12,0-.18,0Z"/>
      </g>
      <path class="cls-1" d="m379.8,296.3v.08c-.62,14.51-6.86,29.88-18.65,45.98-8.09,11.06-18.81,22.47-32.12,34.18-.22.2-.44.39-.67.59-.32.28-.68.5-1.06.64-1.33.5-2.88.17-3.88-.97-1.27-1.45-1.12-3.66.33-4.94,1.2-1.05,2.39-2.11,3.55-3.16,1.26-1.14,2.5-2.28,3.71-3.41,21.35-20.03,34.78-39.3,39.71-56.81v-.02c1.65-5.87,2.35-11.54,2.06-16.97-.02-.34-.04-.67-.08-1v-.04c-1.45-19.26-14.72-29.34-15.6-29.99-.57-.36-5.17-3.13-12.53-3.99h-.01c-2.19-.26-4.63-.34-7.28-.14-3.06.22-6.41.83-9.98,1.98-.83.27-1.67.57-2.53.9-5.13,1.98-10.77,5.15-16.76,10.08-4.55,3.73-9.29,8.47-14.16,14.47-17.36,21.36-36.28,58.57-53.33,122.56-.11.41-8.86,32.58,13.46,63.22,1.81,2.49,3.83,4.96,6.07,7.41,4.19,4.58,7.98,10.46,11.28,17.31,2.26,4.69,4.3,9.83,6.08,15.32,2.5,7.66,4.51,16,5.96,24.72.84,5,1.5,10.12,1.96,15.32.72,8.13.97,16.45.71,24.72-.15,4.42-.44,8.83-.89,13.2-.11,1.18-.25,2.36-.39,3.54-.09.75-.19,1.51-.29,2.25.69-1.88,1.36-3.81,2-5.79,1.36-4.19,2.61-8.59,3.71-13.2,1.82-7.65,3.21-15.9,3.99-24.72.31-3.48.53-7.05.64-10.71.06-1.93,1.68-3.41,3.6-3.39,1.94.05,3.46,1.67,3.4,3.6-.11,3.58-.31,7.08-.6,10.5-.73,8.8-2.05,17.04-3.77,24.72-1.03,4.6-2.21,9-3.5,13.2-5.52,17.96-13.1,32.19-20.03,42.65-1.43,2.88-2.99,5.56-4.65,8.03-2.67,3.98-5.63,7.42-8.86,10.26-1.46,1.3-2.97,2.48-4.54,3.52-.05.04-.1.07-.16.11-.09.06-.19.12-.3.17-.04.02-.08.04-.13.06-.45.2-.94.3-1.42.3-1.05,0-2.09-.47-2.78-1.36-1.12-1.45-.93-3.53.44-4.75.07-.06,1.31-1.19,3.32-3.37l.07-.07c3.15-3.41,8.17-9.35,13.61-17.74,4.45-9.53,7.62-21.39,9.3-35.12.11-.89.21-1.79.31-2.69.46-4.35.75-8.76.89-13.2.26-8.25-.01-16.57-.78-24.72-.48-5.2-1.16-10.33-2.02-15.32-1.53-8.79-3.63-17.15-6.22-24.72-1.91-5.59-4.09-10.75-6.51-15.32-2.6-4.93-5.48-9.18-8.59-12.58-3.67-4.01-6.79-8.08-9.44-12.14-20.81-31.97-12.1-63.59-11.67-65.09,12.82-48.11,27.96-85.76,44.99-111.81,7.66-11.73,15.71-21.13,24.06-28.14.11-.11.23-.21.35-.3,6.28-5.23,12.72-9.1,19.31-11.61,1.64-.62,3.24-1.15,4.81-1.58,19.61-5.43,33.09,3.23,33.7,3.63.03.02.06.04.09.06.66.46,14.96,10.77,18.13,31.14,0,0,0,0,0,0,.24,1.54.41,3.14.51,4.8h0v.03c.01.14.02.29.03.44.09,1.71.1,3.44.03,5.18Z"/>
      <path class="cls-1" d="m331.01,365.29c-.51,2.94-1.04,5.97-1.59,9.08-.13.72-.26,1.44-.39,2.17-.57,3.25-1.15,6.49-1.73,9.72-2.1,11.66-4.21,23.11-6.22,33.83-.51,2.71-1.01,5.37-1.51,7.97-3.07,16.26-5.82,30.38-7.78,40.37-.08.38-.15.75-.22,1.11-.42,2.15-.81,4.09-1.15,5.79-1.07,5.41-1.7,8.52-1.72,8.65-.33,1.66-1.79,2.81-3.42,2.81-.23,0-.46-.02-.69-.07-1.89-.37-3.12-2.21-2.75-4.1.03-.16.75-3.95,1.59-10.18.01-.01.01-.02,0-.03.13-.9.25-1.86.38-2.87.71-5.61,1.45-12.72,1.93-20.67,1.4-23.5.46-54.4-10.55-76.09-10.67-21.01-12.83-46.29-6.23-73.09,1.45-5.92,3.17-11.29,4.89-15.93,4.11-11.15,8.17-18.12,8.4-18.52.16-.28.36-.52.58-.74.11-.11.23-.21.35-.3,1.09-.81,2.62-.94,3.87-.21,1.66.99,2.22,3.13,1.24,4.8-.02.03-.12.2-.28.5-3.05,5.51-29.31,55.56-6.58,100.32,7.06,13.9,10.98,32.25,11.72,54.72,2.91-15.41,6.09-32.61,9.16-49.93,1.87-10.56,3.53-20.18,4.99-28.94,12.56-75.2,10.96-87.13,10.06-88.98-.03-.05-.06-.1-.08-.15-.96-1.6-.48-3.63,1.08-4.67,1.62-1.06,3.81-.58,4.88,1.03.42.63.97,1.47,1.32,3.78h.01c1.12,7.37.2,29.78-13.56,108.82Z"/>
      <path class="cls-1" d="m357.55,474.39c-8.28-18.84-17.38-32.33-23.56-40.34-2.08-2.7-4.47-5.58-6.69-8.03-2.55-2.83-4.88-5.11-6.22-5.93-.22-.13-.41-.23-.57-.28-1.84-.6-3.82.4-4.42,2.24-.5,1.53.12,3.16,1.4,4.01.2.17.93.83,2.08,2,1.74,1.76,4.45,4.68,7.73,8.81,6.87,8.63,16.28,22.59,24.77,42.48,5.68,13.32,11.38,30.54,15.18,51.64-9.93-31.73-27.61-52.66-52.15-61.45-1.09-.4-2.19-.77-3.31-1.11-.62-.19-1.25-.38-1.88-.55-.43-.12-.86-.24-1.29-.35-1.71-.45-3.44.44-4.1,2.01-.07.15-.13.32-.17.49-.49,1.87.63,3.78,2.5,4.27.86.22,1.72.46,2.56.73.34.09.67.2,1.01.3,16.56,5.27,29.87,16.38,39.58,33.06,8.47,14.56,14.28,33.38,17.26,55.92,5.12,38.77-.01,75.44-.06,75.81-.27,1.9,1.04,3.67,2.95,3.95.17.03.35.04.52.04,1.69,0,3.18-1.23,3.45-2.95,12.4-78.44-2.17-133.99-16.57-166.77Z"/>
      <path class="cls-1" d="m305.66,509.58l-.85-15.32-.21-3.75c-.08-1.32-.89-2.48-2.1-3.01-.8-.35-7.99-3.3-13.52.8-1.89,1.4-3.26,3.39-4.1,5.96-1.03,3.15-1.27,7.16-.71,12.01.13,1.14.29,2.25.48,3.31,1.4,7.86,4.33,13.54,8.73,16.9,3.54,2.7,7.04,3.13,8.9,3.13.7,0,1.17-.06,1.32-.09,1.78-.27,3.07-1.85,2.97-3.65l-.91-16.29Zm-8.03,11.33c-2.74-2.08-4.72-5.96-5.85-11.33-.27-1.29-.49-2.66-.66-4.11-.64-5.56-.06-9.51,1.65-11.21.11-.12.23-.22.36-.32.79-.59,1.78-.78,2.77-.78.64,0,1.28.08,1.84.19l.05.91.86,15.32.69,12.36c-.55-.25-1.13-.58-1.71-1.03Z"/>
      <path class="cls-1" d="m310.45,472.15c.12,1.11-.29,2.16-1.04,2.88-.54.53-1.25.88-2.06.97-.13.02-.26.02-.38.02-1.77,0-3.28-1.33-3.48-3.12-.02-.15-.03-.31-.06-.46.01-.01.01-.02,0-.03-.1-.96-.22-1.92-.36-2.87-7.11-51.76-47.05-86.9-47.46-87.25-1.46-1.27-1.62-3.48-.35-4.94,1.26-1.46,3.47-1.62,4.93-.36,1.54,1.33,32.73,28.72,45.55,71.88,1.8,6.03,3.23,12.38,4.17,19.01.08.55.16,1.1.23,1.66.11.87.22,1.74.31,2.61Z"/>
      <path class="cls-1" d="m322.81,684.43c-.11-.02-10.74-2-22.68-6.54-6.02-2.28-11.28-4.8-15.73-7.51-6.93-4.2-11.87-8.85-14.56-13.77-3.09-5.68-3.29-11.69-.58-18.39.02-.06.05-.12.07-.18.63-1.55.08-3.33-1.31-4.25-1.4-.92-3.25-.72-4.42.47l-8.7,8.83-.07.07-3.01,3.05-16.19,7.21c-1.22.54-2.03,1.74-2.07,3.08s.69,2.59,1.87,3.22c.15.07,14.81,7.92,11.65,18.61-.29.99-.14,2.05.43,2.91.57.87,1.49,1.43,2.51,1.55l7.88.94,63.86,7.62c.14.01.28.02.42.02,1.71,0,3.19-1.25,3.46-2.98.28-1.86-.97-3.62-2.83-3.96Zm-64.91-7.75l-3.39-.4c.34-5.5-1.94-10.92-6.74-15.87-1.17-1.2-2.38-2.26-3.52-3.17l11.02-4.9s.09-.04.13-.06c.11-.05.21-.11.3-.17.06-.04.11-.07.16-.11.17-.12.33-.25.48-.4l4.03-4.09c0,.32.01.65.03.97.19,3.96,1.29,7.81,3.3,11.48,2.12,3.89,5.16,7.35,8.73,10.42,4.53,3.9,9.94,7.17,15.49,9.88l-30.02-3.58Z"/>
      <path class="cls-1" d="m441.49,670.38c-.07-.34-.21-.68-.4-.99-.84-1.38-2.51-2-4.04-1.52-.33.11-33.49,10.12-65.05-20.41-.78-.75-1.85-1.09-2.93-.95-1.06.16-2,.79-2.54,1.73l-12.71,22.14-5.43,9.45c-.61,1.06-.62,2.35-.04,3.42.58,1.07,1.68,1.76,2.89,1.82l62.86,3.2h.18c.36,0,.73-.05,1.08-.16.65-.22,16.14-5.3,25.22-14.43.88-.89,1.2-2.14.91-3.3Zm-27.71,10.87l-56.48-2.88,4.59-7.99,8.52-14.85c7.78,6.9,15.58,11.64,22.98,14.85,11.94,5.19,22.86,6.4,31.03,6.21-4.76,2.51-9.1,4.12-10.64,4.66Z"/>
      <path class="cls-1" d="m447.11,248.91c-1.02-.72-2.32-.82-3.41-.35-.41.18-.8.44-1.13.78l-.15.16-2.06,2.13-5.82,6.03-2.23,2.32-12.52,12.97-31.19,32.33c-1.2,1.1-4.05,2.9-5.49,2.23-.33-.16-2.8-1.63-3.31-11.13v-.08c-.08-1.62-.11-3.49-.06-5.62v-.02h0c.01-.21.01-.42.02-.63.04-.83.07-1.54.08-2.08.03-.78-.2-1.51-.61-2.1,0,0,0,0,0,0-.6-.86-1.59-1.45-2.73-1.5-1.94-.06-3.54,1.41-3.64,3.33-.02.45-.04.9-.06,1.34-.02.4-.05.87-.09,1.44v.04c-.21,3.71-.76,10.67-1.96,17.86-.01.04-.01.07-.02.11v.02c-3.06,18.24-7.57,21.45-8.88,22-1.27.53-2.11,1.76-2.15,3.14-.02.69-.04,4.65,1.46,8.74,1,2.73,2.68,5.52,5.5,7.42,2.15,1.45,4.64,2.17,7.47,2.17s6.19-.78,9.78-2.33c19.47-8.43,56.22-80.13,63.48-94.58h0c.29-.59.54-1.08.73-1.47,0-.01.01-.01.01-.02.04-.08.08-.15.11-.22.76-1.55.29-3.42-1.12-4.42Zm-65.99,94.28c-3.25,1.41-7.71,2.69-10.55.79-2.57-1.72-3.51-5.69-3.79-8.35,5.48-4.13,8.68-14.03,10.53-23.85.84.9,1.79,1.59,2.87,2.09,6.2,2.86,12.57-2.88,13.27-3.54.04-.04.08-.08.12-.12l37.27-38.63c-15.2,28.16-37.93,66.51-49.72,71.61Z"/>
      <path class="cls-1" d="m450.11,234.73c-.64-1.16-1.43-2.27-2.36-3.29l-7.86-8.65c-2.45-2.7-6.04-3.82-9.6-3.01-3.56.82-6.3,3.4-7.33,6.9l-4.39,14.89c-.05.16-.08.32-.1.48-.05.32-1.13,8,3.62,13.31,2.33,2.59,5.51,4.12,9.51,4.55.23.03.47.05.71.07.58.04,1.16.06,1.77.06.33,0,.67,0,1.01-.02,4.17-.16,7.73-1.35,10.65-3.57h.01c.57-.43,1.11-.9,1.63-1.41h0c.05-.05.11-.11.16-.16,1.95-1.97,3.31-4.31,4.06-6.81,1.33-4.36.84-9.19-1.49-13.34Zm-7.54,15.22c-.48.49-1,.92-1.56,1.29h-.01c-.21.14-.42.27-.64.39-1.55.86-3.39,1.32-5.54,1.4-3.48.12-5.98-.65-7.49-2.32-2.27-2.5-2.04-6.53-1.96-7.44l4.3-14.61c.45-1.5,1.68-1.94,2.19-2.05.5-.12,1.8-.27,2.85.89l7.87,8.65c2.36,2.59,3.17,6.13,2.45,9.3,0,0-.01,0-.01.01-.25,1.1-.69,2.15-1.32,3.1-.33.5-.7.96-1.13,1.39Z"/>
    </g>
  </g>
</svg>