<?xml version="1.0" encoding="UTF-8"?>
<svg xmlns="http://www.w3.org/2000/svg" viewBox="0 0 720 720">
  <defs>
    <style>
      .cls-1, .cls-2 {
        stroke-width: 0px;
      }

      .cls-2 {
        fill: #5c96ea;
      }
    </style>
  </defs>
  <g id="Layer_8" data-name="Layer 8">
    <g id="Layer_5" data-name="Layer 5">
      <path class="cls-2" d="m412.4,660.34H149.21l-43.35-28.61h69.51c6.46,2.92,16.54,6.11,31.23,7.45-1.73-.8-3.5-1.68-5.32-2.66-2.5-1.35-5.16-2.94-7.9-4.79h175.67l43.35,28.61Z"/>
    </g>
    <g id="Layer_6" data-name="Layer 6">
      <path class="cls-2" d="m424.38,362.63c-5.09-3.25-11.01-5-17.53-5.56,10.73.34,19.18-4.66,23.34-8.93.03-.03.06-.05.09-.09,7.04-6.25,12.78-12.71,17.46-18.96-.9-2.72-1.86-5.42-2.88-8.09-1.46-3.85-3.02-7.65-4.69-11.39-1-2.23-2.03-4.43-3.09-6.62-17.93,17.57-35.49,14.26-41.65,12.3.19-2,.36-4.06.49-6.17,2.08-33.01-30.46-49.27-35.5-51.58,0,0-.01,0-.01-.01-18.01-11.88-47.27-19.48-73.67-15.64-5.97.87-11.79,2.33-17.31,4.45-.11.04-.75.29-1.78.8-2.13,1.05-5.93,3.24-10.2,7.12-.66.6-1.34,1.25-2.03,1.94,3.59.32,7.15.78,10.66,1.36,25.6,4.24,48.9,15.34,67.93,31.35,2.66,2.24,5.24,4.57,7.73,6.99,17,16.58,29.87,37.38,36.89,60.72.35,1.14.68,2.28.99,3.44.56,2.03,1.07,4.07,1.53,6.14.05.2.1.41.14.61,2.19,9.91,3.35,20.22,3.35,30.79,0,7.36-.56,14.58-1.64,21.64-.39,2.57-.85,5.12-1.38,7.64,1.56-.43,3.08-.87,4.55-1.32,6.59,54.67-23.98,106.72-24.29,107.25-.91,1.52-.54,3.48.86,4.56.63.49,1.39.74,2.14.74.9,0,1.8-.35,2.48-1.04,35.81-36.02,52.24-77.42,59.72-105.8,4.4-16.7,6.32-30.81,7.14-40.37,3.62-10.43-.17-22.1-9.84-28.27Zm-36.07-11.43c5.77,3.52,11.28,5.23,16.34,5.73-5.95-.28-12.33.37-18.94,1.71.77-2,1.66-4.49,2.6-7.44Zm13.1-100.29c-9.5-10.3-20.01-19.67-31.36-27.96-2.57-1.88-5.19-3.7-7.85-5.46.2,2.66.58,5.26,1.13,7.51,1.09,4.39,3.56,10.94,5.83,14.32,2.08,3.08,6.61,8.56,9.7,10.85,2.72,1.99,9.33,5.45,12.9,6.49,2.82.81,8.09,1.3,11.81,1.3.94,0,1.78-.03,2.45-.1.44-.04.9-.11,1.39-.19-1.94-2.3-3.94-4.55-6-6.76Zm-40.86,285.41c-.5-1.01-1.44-1.72-2.54-1.91-1.1-.2-2.23.15-3.04.92l-16.72,16.11c-.15.15-.29.32-.42.49-.32.45-1.92,2.91-1.94,7.21-.03,5.32,2.31,11.06,6.96,17.07,3.31,4.27,4.41,6.09,5.56,9.95,2.08-1.17,4.15-2.37,6.18-3.61,2.82-1.71,5.59-3.48,8.32-5.31,2.25-1.5,4.46-3.05,6.65-4.64-1.32-13.06-4-26.03-9.01-36.28Zm-142.62,1.08c-4.9,3.39-9.64,6.53-14.15,9.43,2.54-3.37,4.97-6.98,7.26-10.82-2.42-.54-4.82-1.16-7.19-1.83-6.7,10.74-15.08,20.6-25.52,27.96-10.04,5.63-16.3,8.64-16.56,8.76-1.69.8-2.45,2.8-1.72,4.53.56,1.33,1.85,2.14,3.22,2.14.41,0,.82-.08,1.22-.23,6.22-2.32,12.11-5.41,17.65-9.27,11.5-6.44,27.69-16.15,45.4-28.74.23-.16.46-.33.7-.49-3.48-.36-6.91-.83-10.31-1.44Zm-57.95,39.34c-.62-1.68-2.41-2.61-4.15-2.17l-23.5,6.03c-.35.09-1.42.41-2.72,1.23,2.61,1.61,5.26,3.16,7.95,4.66,8.01,4.47,16.33,8.44,24.92,11.88,3.58,1.43,7.21,2.77,10.89,4.01-5.04-7.11-9.64-15.57-13.39-25.64Z"/>
    </g>
    <g id="Layer_7" data-name="Layer 7">
      <path class="cls-2" d="m299.68,311.22c-11.59-7.67-24.82-13.06-39.04-15.54-2.38-.43-4.79-.76-7.22-1.01-4.85,10.44-7.99,22.49-9.99,32.71-1.23-12.21-.93-23.35.91-33.24-.55-.02-1.1-.02-1.65-.02-1.87,0-3.73.05-5.58.15-54.55,2.89-97.9,48.05-97.9,103.33,0,49.4,34.61,90.71,80.91,101.01,2.31.52,4.64.95,7.01,1.31,3.81-11.77,6.25-22.77,7.79-31.38,2.64-14.73,8.65-28.57,17.4-40.03,8.54-11.2,12.89-11.46,13.45-11.43.98.44,2.11.41,3.07-.1,1.11-.59,1.81-1.73,1.86-2.98,1.29-38.93,20.5-76.14,34.79-98.64-1.89-1.45-3.82-2.83-5.81-4.14Zm-49.39,86.38c-2.78-3.36-6.57-8.46-8.67-13.55-1.8-4.35.31-10.93,2.56-15.8,8.09,14.49,7.54,24.24,6.11,29.35Z"/>
      <path class="cls-2" d="m346.16,397.6c0,10.18-1.47,20.01-4.21,29.3-.72,2.47-1.54,4.91-2.46,7.29-4.03.41-8.13.79-12.2,1.09-12.2,21.61-28.15,41.05-44.87,57.89-4.91,2.05-10.01,3.73-15.27,4.99,19.36-17.95,37.82-38.88,51.76-62.37-3.41.17-6.76.26-9.98.26-16.18,0-29.29-2.31-32.16-9.78-3.17-8.25,7.84-16.57,9.18-17.54,2.14-1.59,27.65-20.29,57.49-34.79.55,2.35,1.02,4.74,1.4,7.15.87,5.37,1.32,10.89,1.32,16.51Z"/>
    </g>
    <circle class="cls-2" cx="567.48" cy="140.79" r="92.99"/>
    <circle class="cls-2" cx="696.7" cy="311.59" r="56.06"/>
    <circle class="cls-2" cx="667.7" cy="436.05" r="29"/>
  </g>
  <g id="Layer_2" data-name="Layer 2">
    <g>
      <path class="cls-1" d="m377.25,278.13c-1.09-5.87-5.3-11.81-12.41-17.41-1.38-1.09-2.86-2.15-4.42-3.18,0,0-.01,0-.01-.01-18.01-11.88-47.27-19.48-73.67-15.64-5.97.87-11.79,2.33-17.31,4.45-.11.04-.75.29-1.78.8-2.13,1.05-5.93,3.24-10.2,7.12-.66.6-1.34,1.25-2.03,1.94-1.72,1.73-3.48,3.74-5.21,6.06-1.05,1.4-2.08,2.91-3.09,4.54-.52.85-1.03,1.71-1.51,2.59-1.43,2.55-2.7,5.22-3.81,8-2.1,5.22-3.66,10.85-4.69,16.88-2.77,16.16-1.71,35.2,3.19,56.93.36,1.6,1.79,2.73,3.41,2.73.09,0,.17,0,.26-.01,1.73-.13,3.11-1.51,3.23-3.23.01-.16,1.24-16.25,5.71-33.39,2.21-8.48,4.8-15.72,7.73-21.62,4.19-8.44,9.07-14.16,14.47-16.93,8.07,6.18,19.8,12.08,36.68,15.09,2.54.46,5.2.85,7.98,1.16,5.31.61,11.07.94,17.3.94,1.56,0,3.11-.01,4.67-.04,17.53-.27,34.3-2.37,35.66-12.6.23-1.71.17-3.44-.15-5.17Zm-123.83,16.54c-4.85,10.44-7.99,22.49-9.99,32.71-1.23-12.21-.93-23.35.91-33.24,1.12-6.07,2.83-11.67,5.1-16.75,1-2.26,2.13-4.42,3.37-6.47.32-.52.63-1.03.96-1.53,1.8-2.79,3.7-5.14,5.56-7.13.27-.29.55-.58.82-.86.08.16.17.33.27.51,1.63,3.08,4.48,7.44,9.11,12-6.79,4.42-12.05,12.02-16.11,20.76Zm117.04-12.29c-.27,1.97-4.04,6.56-33.39,6.56-1,0-2.02-.01-3.06-.03-17.19-.34-39.82-3.7-55.93-16.85-.01,0-.01-.01-.02-.01-.07-.07-.15-.14-.24-.2-6.81-5.63-10.25-11.29-11.74-14.29-.18-.36-.33-.67-.45-.95,3.62-2.67,6.22-3.7,6.28-3.73,27.64-10.64,63.55-3.23,84.11,10.12.01.03.03.05.05.05.31.2.62.41.93.62,1.23.83,2.4,1.68,3.5,2.55,7.07,5.56,10.6,11.31,9.96,16.16Z"/>
      <path class="cls-1" d="m326.45,429.62c-1.69-.94-3.82-.34-4.76,1.35-.9,1.62-1.83,3.22-2.78,4.82-13.94,23.49-32.4,44.42-51.76,62.37-16.5,15.33-33.66,28.49-49.22,39.24-4.9,3.39-9.64,6.53-14.15,9.43,2.54-3.37,4.97-6.98,7.26-10.82,1.79-2.94,3.49-6.02,5.12-9.24,4.54-8.93,8.14-18.1,10.97-26.85,3.81-11.77,6.25-22.77,7.79-31.38,2.64-14.73,8.65-28.57,17.4-40.03,8.54-11.2,12.89-11.46,13.45-11.43.98.44,2.11.41,3.07-.1,1.11-.59,1.81-1.73,1.86-2.98,1.29-38.93,20.5-76.14,34.79-98.64,6.49-10.23,11.97-17.42,14.28-20.36.72-.92,1.14-1.42,1.18-1.47,1.24-1.48,1.04-3.69-.44-4.93s-3.69-1.04-4.93.44c-.31.37-1.68,2.03-3.79,4.8-2.91,3.82-7.23,9.76-12.11,17.38-14.33,22.38-33.47,59.2-35.82,98.99-3.77.74-9.45,4.01-17.11,14.05-9.41,12.35-15.89,27.23-18.72,43.04-1.4,7.83-3.85,19.04-7.91,31.31-3.83,11.57-9.09,24.08-16.27,35.57-6.7,10.74-15.08,20.6-25.52,27.96-10.04,5.63-16.3,8.64-16.56,8.76-1.69.8-2.45,2.8-1.72,4.53.56,1.33,1.85,2.14,3.22,2.14.41,0,.82-.08,1.22-.23,6.22-2.32,12.11-5.41,17.65-9.27,11.5-6.44,27.69-16.15,45.4-28.74.23-.16.46-.33.7-.49,16.36-11.69,35.75-27.1,54.18-45.67,16.72-16.84,32.67-36.28,44.87-57.89.17-.3.34-.6.51-.9.94-1.69.34-3.82-1.35-4.76Z"/>
      <path class="cls-1" d="m424.38,362.63c-5.09-3.25-11.01-5-17.53-5.56-.72-.02-1.45-.07-2.2-.14-5.95-.28-12.33.37-18.94,1.71-2.01.41-4.04.88-6.09,1.42-.82.21-1.64.43-2.46.66-11.19,3.13-22.75,7.89-33.72,13.22-29.84,14.5-55.35,33.2-57.49,34.79-1.34.97-12.35,9.29-9.18,17.54,2.87,7.47,15.98,9.78,32.16,9.78,3.22,0,6.57-.09,9.98-.26,2.75-.12,5.56-.3,8.38-.51,4.07-.3,8.17-.68,12.2-1.09,1.32-.13,2.63-.26,3.93-.4,15-1.6,27.61-4,38.2-6.91,1.56-.43,3.08-.87,4.55-1.32,2.37-.72,4.63-1.48,6.78-2.25,15.92-5.72,26.13-12.7,32.65-19.46,2.67-2.74,4.71-5.45,6.29-8.03.97-1.59,1.75-3.24,2.33-4.92,3.62-10.43-.17-22.1-9.84-28.27Zm2.91,26.81c-.37.93-.83,1.84-1.37,2.72-5.02,8.19-15.55,17.93-37.42,25.35-.01,0-.02,0-.03.01-.32.11-.64.21-.97.32h-.01c-1.45.48-2.95.95-4.49,1.4-10.81,3.2-24.07,5.85-40.33,7.59-.24.03-.48.05-.72.07-52.51,5.55-58.06-1.64-58.64-3.14-.86-2.23,3.45-6.96,6.76-9.37.01-.01.02-.02.03-.02.23-.18,24.05-17.73,52.23-32.02.84-.43,1.68-.85,2.51-1.26,13.54-6.71,25.74-11.47,36.45-14.28,17.12-4.48,30.44-3.94,39.32,1.72,3.63,2.32,6.1,5.73,7.22,9.54,1.09,3.64.96,7.64-.54,11.37Z"/>
      <path class="cls-1" d="m434.22,390.9c-.82,9.56-2.74,23.67-7.14,40.37-7.48,28.38-23.91,69.78-59.72,105.8-.68.69-1.58,1.04-2.48,1.04-.75,0-1.51-.25-2.14-.74-1.4-1.08-1.77-3.04-.86-4.56.31-.53,30.88-52.58,24.29-107.25-.15-1.35-.34-2.71-.55-4.07-.23-1.53.56-2.98,1.87-3.65h.01c.3-.16.62-.27.97-.32,0-.01.02-.01.03-.01.02,0,.03-.01.05-.01,1.9-.3,3.7,1.01,3.99,2.92.15.97.29,1.93.41,2.89,4.65,35.16-5.23,68.7-13.92,90.01,23.36-29.77,35.23-60.95,41.22-83.59,2.54-9.6,4.23-18.38,5.35-25.88.84-5.57,1.36-10.44,1.69-14.41.51-6.18.54-10.21.54-11.37v-.34c-.04-1.93,1.5-3.53,3.43-3.57h.07c1.9,0,3.46,1.52,3.5,3.43.01.42.09,5.25-.61,13.31Z"/>
      <path class="cls-1" d="m430.28,348.05s-.06.06-.09.09c-4.16,4.27-12.61,9.27-23.34,8.93-.72-.02-1.45-.07-2.2-.14-5.06-.5-10.57-2.21-16.34-5.73-.94,2.95-1.83,5.44-2.6,7.44-1.36,3.55-2.34,5.54-2.47,5.79-.44.89-1.21,1.51-2.09,1.77-.34.12-.69.17-1.05.17-.45,0-.92-.09-1.37-.28-1.7-.73-2.54-2.66-1.92-4.4l.35-.97,1.47-4.1,4.26-11.84c2.03-7.18,4.09-16.49,5.31-27.55.3-2.74.55-5.6.74-8.55.83-13.14-4.88-23.26-11.69-30.55-9.02-9.66-19.96-14.33-20.15-14.41-.04,0-.07-.03-.1-.05-.35-.15-.67-.36-.93-.62-.02,0-.04-.02-.05-.05-1.01-.96-1.38-2.48-.81-3.86.74-1.78,2.78-2.62,4.56-1.89.03.01.25.11.64.28,0,.01.01.01.01.01,5.04,2.31,37.58,18.57,35.5,51.58-.13,2.11-.3,4.17-.49,6.17-.23,2.42-.5,4.76-.8,7.02-1.12,8.46-2.68,15.8-4.29,21.88,19.59,13.18,33.46.41,34.83-.92.07-.08.15-.16.23-.22.01-.02.03-.04.04-.05.03-.03.06-.05.09-.08,1.36-1.12,3.38-1.06,4.67.19,1.38,1.35,1.42,3.55.08,4.94Z"/>
      <path class="cls-1" d="m467.24,288.82c-.19,1.01-3.92,19.45-19.5,40.27-4.68,6.25-10.42,12.71-17.46,18.96-.03.04-.06.06-.09.09-.03.03-.07.06-.1.09-.67.59-1.5.88-2.32.88-.97,0-1.93-.39-2.62-1.17-1.2-1.35-1.16-3.37.02-4.67.07-.08.15-.16.23-.22.01-.02.03-.04.04-.05.03-.03.06-.05.09-.08,8.14-7.23,14.46-14.79,19.33-21.92,10.48-15.3,14.31-28.62,15.25-32.42l-1.54-3.19c-4.62,8.39-10.69,17.17-18.4,24.22-6.92,6.33-15.16,11.26-24.86,13.26-8.85,1.83-16.26.64-20.68-.56-2.68-.73-4.27-1.46-4.44-1.53-1.39-.66-2.15-2.11-1.99-3.55.04-.37.14-.75.31-1.11.82-1.74,2.9-2.5,4.65-1.68.2.09.99.44,2.27.85,6.16,1.96,23.72,5.27,41.65-12.3,6.26-6.12,12.56-14.79,18.44-26.95.58-1.2,1.8-1.97,3.15-1.97s2.56.76,3.15,1.97l5.13,10.6c.33.68.43,1.44.29,2.18Z"/>
      <path class="cls-1" d="m446.67,207.29c-.07-4.13-1.29-11.04-2.61-14.8-1.55-4.35-3.93-9.05-6.08-11.96-.95-1.28-3.54-4.47-5.24-6.03-1.3-1.18-4.65-3.66-6.38-4.78-3.14-2.03-10.18-4.65-13.17-5.14-1.84-.28-6.42-.38-10.2-.19-.28-.06-.57-.08-.86-.06-.66.03-1.47.15-2.33.31-.5.06-.95.14-1.33.22-.55.12-1.24.32-2.02.58-.34.1-.66.19-.96.28-1.75.54-4.05,1.52-6.31,2.62-1.8.81-3.4,1.6-4.32,2.17-.4.24-.84.55-1.33.91-.58.36-1.09.7-1.5,1.01-1.03.76-2.45,2.08-3.92,3.54-1.58,1.46-2.98,2.86-3.76,3.75-.4.47-.86,1.06-1.36,1.74-.54.63-.97,1.16-1.25,1.53-.87,1.19-1.86,2.86-2.84,4.69-.86,1.45-1.62,2.86-2.14,4.03-.35.78-.78,1.84-1.21,3.05-.27.65-.52,1.27-.73,1.84-.41,1.14-.82,2.59-1.19,4.18-.42,1.53-.75,2.99-.93,4.18-.52,3.67-.78,8.58-.71,10.23.01.28.05.55.12.81.02.5.05.99.09,1.49.2,2.66.58,5.26,1.13,7.51,1.09,4.39,3.56,10.94,5.83,14.32,2.08,3.08,6.61,8.56,9.7,10.85,2.72,1.99,9.33,5.45,12.9,6.49,2.82.81,8.09,1.3,11.81,1.3.94,0,1.78-.03,2.45-.1.44-.04.9-.11,1.39-.19,4.35-.72,10.32-2.79,12.83-4.07,2.94-1.51,8.76-5.63,11.59-8.5,2.27-2.33,6.43-7.68,8.05-10.62,1.8-3.29,4.29-9.53,5.24-13.11.88-3.36,1.6-10.67,1.55-14.08Zm-8.32,12.3c-.8,3.02-3.09,8.74-4.61,11.52-1.18,2.15-4.87,7-6.91,9.08-2.21,2.25-7.39,5.96-9.77,7.18-2.23,1.13-8.51,3.2-11.72,3.53-.93.09-2.36.08-3.93.01-2.8-.14-6.05-.49-7.7-.97-2.67-.78-8.57-3.85-10.69-5.4-2.08-1.55-6.12-6.27-8.06-9.14-1.58-2.36-3.8-7.89-4.83-12.07-.03-.13-.06-.25-.08-.38-.79-3.39-1.14-7.81-.94-11.64.17-2.68.68-6.01,1.29-8.76.47-1.69,1.07-3.57,1.65-5.2.8-1.92,1.86-4.17,2.9-6.16,1.12-1.87,2.44-3.89,3.54-5.39,1.13-1.31,2.83-3.13,4.41-4.73,1.54-1.41,3.26-2.89,4.57-3.87,1.23-.75,2.89-1.65,4.58-2.48,2.09-.94,4.57-1.94,6.33-2.55,1-.28,1.92-.49,2.64-.63,2.98-.33,9.17-.34,11.08-.04,1.91.31,8.12,2.59,10.45,4.1,1.66,1.07,4.64,3.31,5.46,4.07,1.16,1.06,3.38,3.73,4.34,5.02,1.74,2.36,3.8,6.44,5.11,10.14,1.06,3.01,2.15,9.24,2.21,12.57.04,3.1-.68,9.71-1.32,12.19Z"/>
      <path class="cls-1" d="m246.94,359.3c-.65-.99-1.75-1.58-2.93-1.58h-.02c-1.18,0-2.29.6-2.93,1.6-1.07,1.67-10.36,16.63-5.91,27.4,4.09,9.9,13.2,19.27,13.59,19.67.66.67,1.56,1.05,2.5,1.05.07,0,.14,0,.21-.01,1.01-.06,1.95-.56,2.57-1.36.51-.68,12.44-16.86-7.08-46.77Zm3.35,38.3c-2.78-3.36-6.57-8.46-8.67-13.55-1.8-4.35.31-10.93,2.56-15.8,8.09,14.49,7.54,24.24,6.11,29.35Z"/>
      <path class="cls-1" d="m464.29,235.07c-.76-.94-1.95-1.42-3.15-1.26-1.19.15-2.23.91-2.73,2-.19.4-4.48,9.8-5.54,21.01-1.23,13.1,14.11,20.12,14.76,20.42.46.2.94.3,1.43.3.46,0,.93-.09,1.36-.27.9-.38,1.59-1.11,1.93-2.02,7.6-20.68-7.41-39.4-8.06-40.18Zm2.63,33.69c-3.28-2.24-7.56-6.19-7.08-11.28.44-4.67,1.54-9.06,2.59-12.42,2.95,5.45,6.37,14.29,4.49,23.7Z"/>
      <path class="cls-1" d="m232.35,639.57c-.24-.02-11.15-.98-24.95-7.84-10.82-5.37-23.4-14.36-34.02-29.35h-.01c-5.04-7.11-9.64-15.57-13.39-25.64-.62-1.68-2.41-2.61-4.15-2.17l-23.5,6.03c-.35.09-1.42.41-2.72,1.23-2.84,1.76-6.74,5.87-6.46,14.98.04,1.42.94,2.67,2.27,3.17l6.09,2.27c2.68,1.81,21.76,14.97,28.68,27.77.15.28.34.54.56.77.08.08.41.42,1.03.94,3.76,3.17,18.14,13.21,50.5,14.87,3.01.15,6.12.23,9.31.23,3.48,0,7.04-.09,10.67-.28,1.85-.09,3.3-1.6,3.33-3.45.02-1.85-1.4-3.4-3.24-3.53Zm-56.98-7.84c-5.56-2.5-8.44-4.8-9.3-5.55-8.47-15.09-30.11-29.39-31.04-29.99-.22-.15-.45-.27-.7-.36l-4.13-1.54c.45-5.51,3.25-6.71,3.81-6.89.02,0,0,0,.01,0h.02s.02-.01.03-.01l3.49-.89,17-4.36c2.39,5.96,5.05,11.35,7.92,16.24,9.34,15.97,20.72,26.5,30.9,33.36,2.74,1.85,5.4,3.44,7.9,4.79,1.82.98,3.59,1.86,5.32,2.66-14.69-1.34-24.77-4.53-31.23-7.45Z"/>
      <path class="cls-1" d="m369.56,572.6c-1.32-13.06-4-26.03-9.01-36.28-.5-1.01-1.44-1.72-2.54-1.91-1.1-.2-2.23.15-3.04.92l-16.72,16.11c-.15.15-.29.32-.42.49-.32.45-1.92,2.91-1.94,7.21-.03,5.32,2.31,11.06,6.96,17.07,3.31,4.27,4.41,6.09,5.56,9.95.46,1.58.94,3.5,1.57,6.08,1.69,6.86,4.51,18.27,11.38,39.49.11.36.23.72.35,1.09.47,1.45,1.83,2.42,3.33,2.42.11,0,.21-.01.32-.02,1.63-.15,2.94-1.41,3.15-3.03.01-.09.03-.24.06-.46.53-4.19,3.74-31.86.99-59.13Zm-6.48,41.14c-3.36-11.26-5.11-18.36-6.3-23.18-.84-3.41-1.45-5.88-2.19-8.01-1.2-3.52-2.75-6.15-6.21-10.63-7.25-9.36-5.45-14.64-4.91-15.78l12.74-12.28c3.79,9.71,5.77,21.57,6.7,33.38,1.04,13.26.74,26.46.17,36.5Z"/>
    </g>
  </g>
</svg>