<?xml version="1.0" encoding="UTF-8"?>
<svg xmlns="http://www.w3.org/2000/svg" viewBox="0 0 720 720">
  <defs>
    <style>
      .cls-1, .cls-2 {
        stroke-width: 0px;
      }

      .cls-2 {
        fill: #5c96ea;
      }
    </style>
  </defs>
  <g id="Layer_3" data-name="Layer 3">
    <path class="cls-2" d="m431.43,238.9c-4.06,9.62-13.06,16.59-23.74,18.71l-7.35,1.46c-20.63,43.2-48.79,109.75-62.28,175.26,12.57,19.86,25.52,41.09,39.61,60.88,6,8.43,12.21,16.6,18.68,24.29-22.02-1.51-42.9-7.15-61.89-16.14-1.42-.67-2.82-1.36-4.22-2.06-33.43-16.95-60.61-44.42-77.2-78.06h0c-6.38-19.83-10.23-39.68-10.1-58.58-1.21-4.53-1.19-7.89.42-9.68.59-7.04,1.78-13.92,3.67-20.59-3.51-3.38-6.81-8.26-9.6-14.94,4.17-26.4,14.32-50.81,29.02-71.81.27-.4.54-.79.82-1.18,33.39-19.37,71.21-37.64,102.41-43.04,8.35-1.45,16.23-1.97,23.42-1.35,13.99,1.21,23.57,3.99,29.92,7.68h.01s.02.01.02.01c1.29.5,1.8,1.07,1.9,1.19l.02.02c11.35,7.75,10.3,18.83,6.46,27.93Z"/>
    <path class="cls-2" d="m431.43,238.9c-4.06,9.62-13.06,16.59-23.74,18.71l-7.35,1.46c-20.63,43.2-48.79,109.75-62.28,175.26,12.57,19.86,25.52,41.09,39.61,60.88-16.61-10-31.4-22.71-43.77-37.52-18.99-22.73-32.26-50.42-37.59-80.83-1.72-9.78-2.61-19.83-2.61-30.1,0-24.66,5.16-48.13,14.45-69.37,13.17-30.08,34.65-55.7,61.53-73.97,8.35-1.45,16.23-1.97,23.42-1.35,13.99,1.21,23.57,3.99,29.92,7.68h.01s.02.01.02.01c1.29.5,1.8,1.07,1.9,1.19l.02.02c11.35,7.75,10.3,18.83,6.46,27.93Z"/>
    <path class="cls-2" d="m682.54,346.76c0,95.63-77.53,173.16-173.16,173.16-9.96,0-19.71-.84-29.21-2.46,81.72-13.88,143.95-85.02,143.95-170.7s-62.23-156.82-143.95-170.7c9.5-1.62,19.25-2.46,29.21-2.46,95.63,0,173.16,77.53,173.16,173.16Z"/>
  </g>
  <g id="Layer_32" data-name="Layer 32">
    <path class="cls-2" d="m269.18,515.63c-12.38,2.81-25.25,4.29-38.48,4.29-95.63,0-173.15-77.53-173.15-173.16s77.52-173.16,173.15-173.16c13.23,0,26.1,1.48,38.48,4.29-77.12,17.5-134.69,86.46-134.69,168.87s57.57,151.37,134.69,168.87Z"/>
    <path class="cls-2" d="m163.36,515.63c-12.38,2.81-25.25,4.29-38.48,4.29-95.63,0-173.15-77.53-173.15-173.16S29.25,173.61,124.88,173.61c13.23,0,26.1,1.48,38.48,4.29-77.12,17.5-134.69,86.46-134.69,168.87s57.57,151.37,134.69,168.87Z"/>
    <path class="cls-2" d="m649.51,642.88H253.61l-135.13-34.1h214.62c-13.93.63-38.06,2.73-56.58,9.6,7.26-.79,16.14-1.42,26.03-1.42,13.27,0,28.36,1.13,43.76,4.53,5.13,1.13,7.27.86,8.01.66-.15-.81-.93-3.15-4.93-7.94-2.5-2.99-5.96-4.9-9.78-5.43h174.78l135.13,34.1Z"/>
  </g>
  <g id="Layer_2" data-name="Layer 2">
    <path class="cls-1" d="m323.4,189.79c-.22,0-.43,0-.63-.01-4.38-.17-12.92-2.23-16.6-3.73-4.11-1.7-11.01-6.78-14.21-9.65-3.55-3.21-8.26-10-10.77-14.71-1.52-2.88-2.92-6.41-4-10.03-.15-.25-.27-.53-.36-.82-.54-1.85-1.66-7.56-2.11-11.95-.14-1.41-.18-3.16-.14-5.03-.04-1.94.01-3.71.17-5.14.08-.71.18-1.49.3-2.3.16-1.53.33-2.88.51-3.89.27-1.5.74-3.32,1.3-5.23.59-2.39,1.25-4.58,1.9-6.19.21-.52.57-1.26,1.01-2.15.38-.91.73-1.72,1.06-2.36.63-1.25,1.84-3.26,3.24-5.4,1.26-2.09,2.5-4,3.45-5.16.38-.46.86-.99,1.42-1.58.45-.55.88-1.03,1.27-1.43.9-.92,2.52-2.3,4.39-3.77,2.24-1.88,4.57-3.64,6.4-4.75.32-.19.66-.39,1.01-.59.83-.53,1.56-.96,2.15-1.26.42-.21.93-.42,1.51-.64.92-.43,1.78-.78,2.48-1,.31-.1.62-.15.93-.15,4.3-1.31,9.65-2.53,11.85-2.73,3.44-.3,12.37.7,16.46,2.09,2.32.8,6.86,2.67,8.68,3.64,2.41,1.31,6.27,4.21,7.72,5.4,3.3,2.72,7.37,7.42,10.39,11.96,2.6,3.94,5.97,11.51,7.23,16.2,1.04,3.89,2.31,12.48,2.27,16.59-.06,4.39-1.13,12.27-2.25,16.56-1.01,3.84-4.25,11.17-6.18,14.48-2.42,4.11-7.9,10.5-10.83,13.06-2.78,2.41-10.18,7.2-15.03,8.94-3.56,1.26-11.52,2.72-16,2.72Zm-41.81-55.7c.08,3.36.47,7.3,1.06,10.48.92,4.75,2.74,10.07,4.73,13.84,2.45,4.61,6.69,10.47,9.26,12.79,3.13,2.8,9.28,7.17,12.19,8.38,2.96,1.21,10.81,3.08,14.2,3.21,3.29.11,11.05-1.25,14.02-2.31,3.76-1.35,10.43-5.58,12.79-7.62,2.46-2.15,7.38-7.93,9.39-11.33,1.78-3.04,4.69-9.82,5.45-12.71.97-3.71,1.97-11.07,2.02-14.86.03-3.11-1.07-11.08-2.04-14.7-1.06-3.96-4.13-10.84-6.3-14.15-2.62-3.95-6.24-8.14-9.01-10.42-1.5-1.23-4.9-3.71-6.6-4.64-1.29-.69-5.5-2.45-7.61-3.18-3.32-1.13-11.22-1.95-13.58-1.74-2.35.21-9.67,2.06-13.09,3.33-.86.4-1.89.94-2.95,1.54-1.84,1.19-4.32,3.01-6.44,4.67-1.84,1.54-3.63,3.18-4.91,4.48-1.26,1.54-2.83,3.76-4.2,5.85-1.39,2.32-2.83,4.94-3.78,6.81-.85,2.09-1.83,4.88-2.59,7.44-.65,2.64-1.22,5.59-1.6,8.07-.21,2.14-.36,4.6-.41,6.77Z"/>
    <path class="cls-1" d="m202.44,301.77c-3.51,0-6.63-1.87-7.97-4.96-1.42-3.28-.28-6.96,2.82-9.17,10.17-7.27,21.23-14.82,31.98-21.84,1.11-.73,2.55-.76,3.69-.08,1.15.68,1.81,1.95,1.71,3.27-.63,8.42-.63,16.29-.01,23.39.15,1.78-1.05,3.39-2.8,3.74l-27.42,5.45c-.67.13-1.34.2-1.99.2Zm24.86-26.29c-8.8,5.84-17.67,11.95-25.95,17.86-.58.41-.49.62-.46.69.18.41.9.92,2.17.67l24.39-4.85c-.28-4.55-.33-9.35-.15-14.38Z"/>
    <path class="cls-1" d="m276.71,287.14c-1.55,0-2.95-1.03-3.38-2.58-.38-1.4-.77-2.82-1.17-4.27l-.24-.87c-.25-.91-.5-1.83-.76-2.75-.01-.04-.02-.08-.03-.11-.04-.15-.08-.3-.13-.45-.87-3.14-1.75-6.28-2.66-9.44l-.66-2.28c-.63-2.18-1.26-4.38-1.91-6.57-.9-3.07-1.8-6.13-2.7-9.17l-.18-.59c-.47-1.56.2-3.23,1.61-4.04l1-.58c41.62-24.14,76.46-38.77,103.56-43.46,8.9-1.54,17.08-2.01,24.32-1.39,13.45,1.16,23.96,3.88,31.24,8.06.06.03.12.06.17.09h0c.67.39,1.35.82,2.08,1.3.07.04.13.09.19.14,5.94,4.1,9.4,9.41,10.28,15.77.69,4.94-.23,10.43-2.71,16.31h0c-4.49,10.64-14.31,18.41-26.28,20.78l-130.97,26.02c-.23.05-.46.07-.68.07Zm1.2-12.34c.26.93.52,1.85.77,2.77l.24.86c.11.38.21.76.31,1.14l28.23-5.61,99.54-19.78c9.69-1.92,17.61-8.14,21.2-16.64h0c4.44-10.51,2.73-18.26-5.21-23.68-.04-.03-.08-.06-.12-.09-.5-.33-.97-.63-1.43-.9-.06-.03-.12-.06-.18-.1-6.38-3.71-15.96-6.14-28.46-7.22-6.64-.57-14.21-.13-22.52,1.31-25.98,4.5-59.58,18.56-99.87,41.82.7,2.38,1.4,4.76,2.1,7.15.65,2.21,1.28,4.41,1.91,6.6l.66,2.28c.92,3.19,1.81,6.35,2.66,9.44.05.16.12.4.18.64Zm153.51-35.89h0,0Z"/>
    <path class="cls-1" d="m261.69,344.3c-6.1,0-12.03-2.51-17.09-7.38-4.08-3.93-7.58-9.35-10.4-16.11-1.09-2.6-2.1-5.46-3-8.5-1.74-5.89-2.92-12.39-3.51-19.33-.65-7.46-.65-15.71,0-24.51,2.94-39.05,17.61-76.54,18.24-78.12.54-1.38,1.91-2.26,3.37-2.21,1.48.05,2.77,1.02,3.22,2.43.08.26,8.59,26.81,17.1,55.47l.18.59c.9,3.05,1.81,6.13,2.71,9.2.65,2.21,1.28,4.41,1.91,6.6l.66,2.28c.92,3.19,1.81,6.35,2.66,9.44.82,2.9,1.6,5.78,2.35,8.56l.97,3.66c4.32,16.33,6.48,26.69,6.61,31.66.25,9.71-6.61,19.87-16.31,24.15-3.2,1.41-6.46,2.11-9.67,2.11Zm-12.7-141.69c-4.58,13.69-12.33,39.98-14.31,66.38-.63,8.42-.63,16.29-.01,23.38.55,6.48,1.64,12.51,3.25,17.94.83,2.79,1.75,5.41,2.74,7.78,2.46,5.88,5.42,10.51,8.8,13.77,7.64,7.36,15.24,5.61,19.09,3.91,7.1-3.13,12.32-10.68,12.14-17.56h0c-.08-3-1.24-10.65-6.38-30.05l-.97-3.64c-.74-2.74-1.52-5.59-2.34-8.49-.85-3.09-1.74-6.23-2.65-9.38l-.66-2.28c-.63-2.18-1.26-4.38-1.91-6.57-.9-3.07-1.8-6.13-2.7-9.17l-.18-.59c-5.34-17.98-10.68-35.12-13.92-45.44Z"/>
    <path class="cls-1" d="m338.05,437.84c-1.19,0-2.31-.6-2.96-1.63-3.56-5.63-6.49-10.2-9.22-14.36l-.73-1.12c-.55-.84-1.09-1.67-1.64-2.5-6.26-9.44-11.52-16.89-16.57-23.44-.4-.53-.81-1.04-1.21-1.55l-.07-.09c-.22-.29-.43-.55-.64-.81l-.36-.45c-.19-.25-.36-.46-.53-.66-2.32-2.89-4.43-5.4-6.49-7.73-1.3-1.48-2.6-2.89-3.86-4.2-.53-.57-1.02-1.07-1.52-1.57-.36-.37-.69-.7-1.01-1.01-.37-.38-.68-.67-.99-.98l-.33-.32c-.83-.8-1.68-1.6-2.54-2.37-4.04-3.67-7.89-6.61-11.76-9-.38-.24-.73-.45-1.09-.66-4.34-2.57-8.71-4.42-13-5.49-.48-.13-.89-.22-1.31-.31-.49-.11-.92-.2-1.33-.27-.5-.09-.94-.16-1.39-.23-3.56-.51-7.19-.52-10.8-.04-.26.04-.61.11-.76.28-1.01,1.11-2.61,1.46-3.99.86-1.38-.6-2.22-2.01-2.09-3.5.62-7.42,1.9-14.57,3.79-21.25.33-1.18,1.27-2.1,2.45-2.42,1.19-.32,2.46,0,3.34.86,7.64,7.36,15.24,5.61,19.09,3.91,7.1-3.13,12.32-10.68,12.14-17.56-.08-3-1.24-10.65-6.38-30.05-.34-1.3.09-2.68,1.11-3.56,2.1-1.79,4.35-3.57,6.71-5.29.41-.3.88-.51,1.38-.61l116.15-23.08c1.3-.26,2.63.24,3.45,1.29.81,1.05.97,2.46.39,3.66-20.92,43.81-48.66,109.64-62.01,174.46-.29,1.4-1.4,2.48-2.8,2.74-.21.04-.42.06-.63.06Zm-86.06-88.14c2.18,0,4.35.15,6.49.46.54.07,1.07.16,1.61.26.49.08,1.04.19,1.59.32.5.1,1.06.23,1.61.38,4.88,1.22,9.88,3.32,14.8,6.24.41.24.82.49,1.23.75,4.22,2.6,8.41,5.8,12.77,9.76.91.82,1.81,1.67,2.71,2.53l.33.32c.35.34.71.69,1.05,1.04.31.3.68.67,1.06,1.06.53.53,1.08,1.09,1.62,1.67,1.29,1.33,2.66,2.82,4.02,4.38,2.13,2.4,4.31,5,6.66,7.93.19.23.42.52.64.81l.3.38c.23.29.46.58.69.88l.05.06c.41.53.83,1.06,1.24,1.59,5.15,6.68,10.5,14.25,16.85,23.83.56.83,1.12,1.69,1.67,2.55l.72,1.11c1.48,2.27,3.03,4.65,4.7,7.25,13.38-59.7,38.02-119.33,57.77-161.4l-108.56,21.57c-1.38,1.02-2.71,2.06-4,3.11,3.94,15.09,5.92,24.75,6.04,29.5.25,9.71-6.61,19.87-16.31,24.15-7.56,3.33-15.43,2.67-22.27-1.71-.69,3.06-1.25,6.22-1.67,9.44,1.53-.15,3.06-.23,4.58-.23Z"/>
    <path class="cls-1" d="m424.94,214.46c-.67,0-1.35-.19-1.94-.59-.61-.41-1.17-.76-1.72-1.08-1.58-.92-2.18-2.9-1.39-4.54.79-1.65,2.71-2.41,4.42-1.75,1.8.7,2.8,1.59,3.32,2.21,1.12,1.33,1.08,3.29-.08,4.58-.69.76-1.64,1.16-2.61,1.16Zm-2.55-1.11h0Z"/>
    <path class="cls-1" d="m362.43,596.77c-18.4-21.25-28.04-51.16-28.67-88.95-.03-1.59-.05-3.19-.04-4.81,0-.56,0-1.11.01-1.67v-.15c.01-.83.02-1.67.04-2.57.01-.42.02-.85.03-1.28.03-1.2.07-2.4.12-3.63.04-.93.08-1.87.12-2.8.04-.79.08-1.59.12-2.39.01-.14.01-.28.02-.42l.04-.64c.01-.09.01-.19.02-.29.03-.35.05-.71.07-1.07.05-.76.1-1.51.15-2.27l.15-1.88c.04-.49.08-.98.12-1.48.05-.6.1-1.19.16-1.79.03-.36.06-.72.1-1.08.06-.62.12-1.25.18-1.88.05-.63.12-1.26.19-1.91.1-.91.2-1.82.3-2.74.1-.92.21-1.83.33-2.76.02-.26.06-.53.09-.79.03-.25.06-.5.1-.75.09-.73.18-1.44.27-2.14.02-.16.05-.33.07-.5.13-.97.26-1.94.4-2.92h0c.02-.15.04-.3.06-.44.11-.84.24-1.7.37-2.56.54-3.59,1.13-7.25,1.79-10.96.14-.81.29-1.63.45-2.47.06-.37.13-.75.2-1.12h0c.08-.44.16-.88.25-1.33.2-1.05.4-2.1.61-3.16.03-.18.07-.37.11-.55.22-1.2.47-2.38.72-3.58.18-.88.01-1.81-.47-2.58-.66-1.04-1.3-2.05-1.92-3.02-2.74-4.32-5.12-8.01-7.36-11.44l-.73-1.11c-.56-.85-1.12-1.71-1.67-2.54-6.35-9.58-11.71-17.15-16.85-23.83-.42-.54-.83-1.07-1.24-1.59l-.05-.07c-.34-.44-.68-.87-1.03-1.3-.21-.28-.43-.55-.6-.76-2.22-2.78-4.47-5.46-6.67-7.94-1.37-1.55-2.73-3.04-4.02-4.38-.54-.58-1.09-1.14-1.62-1.67-.37-.38-.75-.76-1.06-1.06-.26-.27-.53-.54-.81-.81-.08-.07-.16-.15-.24-.23l-.33-.32c-.89-.86-1.8-1.71-2.71-2.53-4.36-3.96-8.55-7.16-12.77-9.76-.4-.26-.81-.51-1.23-.75-4.91-2.92-9.92-5.02-14.81-6.24-.56-.15-1.1-.28-1.59-.38-.56-.12-1.11-.23-1.6-.31-.53-.1-1.08-.19-1.61-.26-4.19-.61-8.47-.62-12.72-.05-.7.09-1.35.26-1.96.48-1.2.44-2.22,1.12-3.05,2.04-.52.57-.83,1.29-.9,2.05-.27,3.27-.42,6.63-.43,9.96-.12,18,3.32,38.03,10.22,59.53.02.04.03.09.05.14,27.96,86.94,104.23,173.43,107.46,177.07.69.78,1.66,1.18,2.62,1.18.82,0,1.64-.29,2.31-.87,1.44-1.27,1.6-3.47.34-4.92Zm-99.26-155.73c-2.48-6.23-4.75-12.48-6.77-18.74-.01-.05-.02-.09-.04-.14-6.71-20.85-10.05-40.18-9.93-57.49.01-2.55.1-5.11.27-7.62h.01c3.61-.49,7.23-.48,10.79.04.44.06.89.13,1.39.22.42.07.85.16,1.34.27.42.09.84.18,1.31.31,4.29,1.07,8.66,2.91,13,5.49.36.21.71.42,1.09.66,3.88,2.39,7.73,5.33,11.77,9,.85.78,1.7,1.57,2.53,2.37l.34.33c.3.3.61.6.98.97.33.32.65.64,1.01,1.01.5.5.99,1,1.52,1.57,1.24,1.29,2.52,2.68,3.81,4.14.01.02.03.04.05.06,2.13,2.41,4.3,4.99,6.49,7.73.17.2.34.41.5.62.02.03.04.05.06.08.32.4.63.79.96,1.23l.07.09c.4.51.8,1.02,1.21,1.55,5.05,6.54,10.31,13.99,16.57,23.43.55.83,1.09,1.66,1.64,2.5l.73,1.12c2.53,3.86,5.24,8.08,8.47,13.17-.19.94-.38,1.89-.56,2.82-.22,1.07-.42,2.13-.62,3.2-.18.96-.36,1.91-.53,2.86-.1.56-.2,1.12-.3,1.68-.01.05-.02.1-.03.15-.11.59-.21,1.18-.31,1.77-.38,2.2-.74,4.37-1.08,6.52-.17,1.06-.33,2.11-.48,3.16-.09.6-.18,1.2-.27,1.8-.04.26-.07.52-.1.77-.06.42-.12.85-.19,1.28-.1.73-.19,1.45-.29,2.16-.01.06-.02.12-.02.18-.14,1.06-.28,2.15-.42,3.29-.15,1.2-.3,2.4-.44,3.62-.1.93-.2,1.85-.3,2.77-.08.81-.16,1.62-.24,2.43-.09.86-.17,1.73-.24,2.59-.08.86-.15,1.71-.22,2.56-.03.25-.05.51-.07.76l-.15,1.96c-.01.21-.03.42-.04.63-.03.4-.06.8-.09,1.2,0,.16-.01.32-.03.48v.09c-.01.21-.03.43-.04.64-.02.22-.03.44-.05.66l-.02.43c-.06,1.04-.12,2.07-.17,3.09h0c-.05.98-.09,1.94-.12,2.89v.17c-.02.38-.03.76-.05,1.14,0,.42-.03.83-.04,1.25-.03.82-.04,1.65-.06,2.52v.06c-.01.3-.01.6-.01.9-.02.54-.02,1.09-.03,1.62v.16c-.23,23.79,2.85,44.78,9.2,62.83-22.38-29.44-53.72-75.28-72.76-123.06Z"/>
    <path class="cls-1" d="m242.93,368.17c-1.56,0-2.97-1.05-3.38-2.6-1.61-6.01-1.21-10.24,1.2-12.92,1.01-1.12,2.61-1.47,3.99-.87,1.38.6,2.22,2.01,2.1,3.51-.26,3.08-.4,6.24-.41,9.4,0,1.75-1.31,3.23-3.05,3.46-.15.02-.3.03-.45.03Z"/>
    <path class="cls-1" d="m490.06,574.23c-.22-1.64-1.55-2.9-3.19-3.03-31.06-2.46-58.97-19.61-87.85-53.95-6.02-7.16-12.07-15.03-18.51-24.07-11.35-15.94-21.99-32.87-32.27-49.24-2.43-3.87-4.84-7.7-7.23-11.48-.52-.82-1.33-1.37-2.24-1.55-.44-.1-.89-.1-1.35-.02-1.4.25-2.51,1.34-2.8,2.73-.1.46-.19.93-.28,1.39-.19.94-.38,1.89-.56,2.82-.21,1.07-.42,2.14-.62,3.2-.18.96-.36,1.91-.53,2.86-.1.56-.2,1.12-.3,1.68-.01.05-.02.1-.03.15-.11.59-.21,1.18-.31,1.77-.38,2.2-.74,4.37-1.08,6.52-.17,1.06-.33,2.11-.48,3.16-.09.6-.18,1.2-.27,1.8-.04.28-.08.56-.12.83-.06.41-.11.82-.17,1.22-.1.73-.19,1.45-.29,2.16-.01.06-.02.12-.02.18-.14,1.06-.28,2.15-.42,3.29-.15,1.2-.3,2.4-.44,3.62-.1.93-.2,1.85-.3,2.77-.08.81-.16,1.62-.24,2.43-.09.86-.17,1.73-.24,2.59-.08.86-.15,1.71-.22,2.56-.09,1.12-.18,2.24-.26,3.35-.03.4-.06.8-.09,1.2,0,.16-.01.32-.03.48-.01.24-.03.49-.04.73-.03.37-.05.73-.07,1.09-.06,1.04-.12,2.07-.17,3.09h0c-.05.99-.09,1.96-.12,2.89-.02.44-.03.87-.05,1.31,0,.42-.03.83-.04,1.25-.02.84-.04,1.68-.06,2.52v.06c0,.33.05.66.13.98.14.49.39.94.72,1.33,1.42,1.63,2.82,3.23,4.22,4.79.63.7,1.27,1.41,1.92,2.13,24.71,27.17,62.95,60.57,107.96,70.32,9.39,2.03,17.57,2.72,24.33,2.72,13.43,0,21.23-2.7,21.71-2.87,1.56-.56,2.52-2.12,2.3-3.76Zm-47.41-3.05c-40.95-9.07-76.31-38.79-100.21-64.29-1.87-1.99-3.66-3.95-5.38-5.87-1.09-1.21-2.17-2.43-3.26-3.68.03-1.2.07-2.4.12-3.63.03-.92.07-1.85.12-2.8.04-.79.08-1.59.12-2.39.03-.45.06-.9.08-1.35.03-.35.05-.71.07-1.07.09-1.37.19-2.75.3-4.15.04-.49.08-.98.12-1.48.05-.59.1-1.19.16-1.79.03-.36.06-.72.1-1.08.06-.62.12-1.25.18-1.88s.12-1.27.19-1.91c.1-.91.2-1.82.3-2.74.1-.91.21-1.83.33-2.76.03-.27.06-.54.1-.81.03-.24.06-.49.09-.73.08-.71.17-1.42.27-2.14.02-.16.05-.33.07-.5.13-.97.26-1.94.4-2.92h0c.02-.15.04-.3.06-.44.11-.84.24-1.7.37-2.56.54-3.59,1.13-7.25,1.79-10.96.14-.82.29-1.64.45-2.47.06-.37.13-.75.2-1.12.84,1.33,1.68,2.66,2.52,4,8.85,14.09,17.96,28.59,27.6,42.58,1.62,2.35,3.25,4.68,4.9,7,5.75,8.1,11.22,15.27,16.64,21.85.74.9,1.47,1.78,2.21,2.66,23.12,27.5,45.82,44.45,70.04,52.05-5.98-.14-13.06-.85-21.05-2.62Z"/>
    <path class="cls-1" d="m354.76,609.73c-.27-.33-.55-.64-.84-.95-4.28-4.58-10.21-7.15-16.53-7.15-.25,0-.5,0-.76.01-23.34.75-40.53,3.6-53.13,7.14-15.29,4.3-23.8,9.62-28.32,13.45-1.24,1.04-1.59,2.8-.87,4.24.72,1.44,2.34,2.2,3.91,1.84.43-.09,42.89-9.62,86.57.01,2.5.55,5.22,1.03,7.73,1.03,3.34,0,6.31-.84,7.9-3.46,2.25-3.7.45-8.83-5.66-16.16Zm-8.46,11.76c-15.4-3.4-30.49-4.53-43.76-4.53-9.89,0-18.77.63-26.03,1.42,18.52-6.87,42.65-8.97,56.58-9.6,1.36-.07,2.61-.11,3.76-.15.93-.03,1.85.02,2.75.15,3.82.53,7.28,2.44,9.78,5.43,4,4.79,4.78,7.13,4.93,7.94-.74.2-2.88.47-8.01-.66Z"/>
    <path class="cls-1" d="m498.5,603.45l-1.86-3.42c-4.88-8.95-14.37-14.52-24.49-14.52-.53,0-1.06.02-1.59.05-17.06,1-46.59,5.4-62.19,23.22-1.31,1.5-2.53,3.1-3.63,4.8-.74,1.13-.75,2.6-.03,3.75.64,1.03,1.77,1.65,2.97,1.65.13,0,.27,0,.41-.03l86.22-10.17,1.53-.18c1.15-.14,2.16-.84,2.7-1.87.53-1.03.52-2.26-.04-3.28Zm-82.57,7.53c.79-.76,1.62-1.5,2.48-2.2,14.73-12.11,38.3-15.4,52.56-16.24,7.57-.44,14.85,3.34,18.87,9.72l-55.26,6.52-18.65,2.2Z"/>
  </g>
</svg>