<?xml version="1.0" encoding="UTF-8"?>
<svg xmlns="http://www.w3.org/2000/svg" viewBox="0 0 720 720">
  <defs>
    <style>
      .cls-1, .cls-2 {
        stroke-width: 0px;
      }

      .cls-2 {
        fill: #5c96ea;
      }
    </style>
  </defs>
  <g id="Layer_12" data-name="Layer 12">
    <g id="Layer_9" data-name="Layer 9">
      <path class="cls-2" d="m303.32,183.87h0l-15.74,7.26c-4.04,1.86-4.99,7.18-1.84,10.33h0c3.15,3.15,8.46,2.2,10.33-1.84l7.26-15.74Z"/>
      <path class="cls-2" d="m296.23,170.5h0l-16.26-6c-4.17-1.54-8.6,1.55-8.6,6h0c0,4.45,4.43,7.54,8.6,6l16.26-6Z"/>
      <path class="cls-2" d="m301.15,157.12h0l-7.26-15.74c-1.86-4.04-7.18-4.99-10.33-1.84h0c-3.15,3.15-2.2,8.46,1.84,10.33l15.74,7.26Z"/>
      <path class="cls-2" d="m356.72,536.29c4.68,5.67,9.63,12.04,14.48,18.93-2.75.23-5.53.39-8.33.48h-.01c-1.79.06-3.58.09-5.39.09-44.58,0-84.97-17.93-114.35-46.98-.06-.05-.11-.1-.16-.15-1.62-1.61-3.2-3.24-4.75-4.9-.53-.58-1.06-1.16-1.59-1.75-9.34-10.36-17.36-21.92-23.81-34.43-1.11-2.14-2.17-4.32-3.18-6.52-9.53-20.68-14.84-43.7-14.84-67.96,0-84.23,64.02-153.51,146.05-161.84,3.21-.33,6.45-.56,9.72-.69,2.55,1.92,5.49,3.86,7.17,4.55,2.48,1.02,9.09,2.59,11.94,2.7,2.76.09,9.28-1.05,11.78-1.94,1.47-.53,3.51-1.61,5.47-2.79,2.96.54,5.9,1.16,8.81,1.86-9.82,2.37-19.29,5.62-28.33,9.69h-.01c-7.67,3.44-15.02,7.46-22,12.01-.08.04-.16.09-.24.16h-.01c-.81.52-1.62,1.06-2.42,1.61-2.12,1.43-4.2,2.92-6.25,4.47-7.85-.18-19.58,1.11-28.16,8.86-7.97,7.2-11.9,18.67-11.69,34.17-.31.49-.62.98-.93,1.48-1.9,3.05-3.7,6.17-5.39,9.36-3.97,7.45-7.37,15.24-10.15,23.32h0c-5.44,15.79-8.52,32.67-8.81,50.24-.02.93-.03,1.85-.03,2.78,0,1.57.02,3.13.07,4.69.67,23.97,6.54,46.64,16.51,66.93,1.06,2.18,2.18,4.33,3.35,6.45,3.02,5.53,6.36,10.86,10,15.97,0,.02.01.03.03.05,5.64,7.96,11.97,15.37,18.93,22.18t.01.01c4.46,4.37,9.17,8.48,14.11,12.31.02.01.03.01.03.02,7.02,5.45,14.49,10.34,22.36,14.58h.01Z"/>
      <path class="cls-2" d="m388.2,549.24c2.48.74,4.98,1.41,7.51,2.01h0c-2.27.56-4.55,1.06-6.85,1.51-.21-1.18-.43-2.35-.66-3.52Z"/>
    </g>
    <g id="Layer_11" data-name="Layer 11">
      <path class="cls-2" d="m467.02,230.42c-39.19,0-75.14,13.86-103.22,36.94-1.84,1.51-3.65,3.06-5.42,4.66,5.01,4.22,10.3,10.24,13.87,18.53,7.23,16.81,5.59,38-4.86,63.03-17-16.7-25.42-36.77-25.06-59.73.03-1.91.12-3.77.27-5.56-2.53,3-4.95,6.08-7.25,9.26.43,16.37,5.47,38.05,24.3,58.12-14.42-1.03-30.6-4.58-47.47-12.61-.72,2.24-1.4,4.51-2.02,6.79,20.96,9.79,40.9,13.05,57.94,13.14.17.03.35.04.52.04h.04c.15,0,.31,0,.46-.03,9.3-.02,17.72-.97,24.94-2.29,9.29-1.7,17.34-4.1,23.82-6.47-29.37,26.08-51.85,24.86-52.09,24.85-.1-.01-.19-.01-.29-.01h-.07c-.36,0-35.53.4-55.26-26.97-.15-.21-.3-.42-.45-.64-.77,2.9-1.46,5.84-2.06,8.8,13.19,15.63,30.63,21.81,42.93,24.25-3.48,9.04-14.4,32.72-39.06,52.7-.16-5.5-2.14-13.08-5.5-20.57,1.06,7.27,2.59,14.38,4.58,21.31h0c.24.86.49,1.71.75,2.56.47,1.54.96,3.08,1.48,4.6,6.85-5.23,12.74-10.72,17.81-16.2,4.61,3.76,17.35,15.51,30.33,39.6,10.84,20.12,18.48,42.5,23.83,65h.01c2.68,1.58,5.42,3.08,8.2,4.5h.01c22.19,11.36,47.34,17.77,73.99,17.77,89.85,0,162.69-72.84,162.69-162.69s-72.84-162.68-162.69-162.68Zm-22.77,98.47c-.84,1.8-2.25,2.63-2.91,2.94-1.24-.09-3.8-.54-5.07-2.04-.33-.38-1.31-1.53-.74-4.68.62-3.39,2.13-6.31,4.5-8.66.42-.43.9-.54,1.27-.54.16,0,.3.02.4.05.31.06,1.07.3,1.42,1.17,2.01,4.98,2.4,9.05,1.13,11.76Zm46.86-49.09c1.11-2.41,3.44-3.72,5.82-3.72,1.6,0,3.23.61,4.5,1.88,3.15,3.14,2.2,8.46-1.84,10.32l-15.74,7.26,7.26-15.74Zm12.49,60.08c-3.15,3.14-8.46,2.19-10.33-1.85l-7.26-15.74,15.75,7.26c2.41,1.11,3.71,3.44,3.71,5.82,0,1.61-.6,3.24-1.87,4.51Zm3.6-24.97l-16.26-5.99,16.26-6c.74-.27,1.49-.4,2.22-.4,3.38,0,6.38,2.74,6.38,6.4,0,4.44-4.43,7.53-8.6,5.99Z"/>
    </g>
    <polygon class="cls-2" points="179.85 667.14 40.55 667.14 -30.03 641.2 109.27 641.2 179.85 667.14"/>
    <polygon class="cls-2" points="245.18 667.14 218.58 667.14 148.01 641.2 174.61 641.2 245.18 667.14"/>
    <polygon class="cls-2" points="179.85 667.14 40.55 667.14 -30.03 641.2 109.27 641.2 179.85 667.14"/>
    <polygon class="cls-2" points="13.95 667.14 -24.79 667.14 -95.36 641.2 -56.62 641.2 13.95 667.14"/>
    <polygon class="cls-2" points="179.85 667.14 40.55 667.14 -30.03 641.2 109.27 641.2 179.85 667.14"/>
    <path class="cls-2" d="m526.12,667.14h-204.63l-70.57-25.94h145.86c-2.5,3.58-6.72,8.62-12.64,12.23,10.13,3.02,27.94,7.25,46.71,6.56-11.26-1.62-23.25-6.86-34.07-18.79h58.77l13.68,5.03,10.82,3.98,46.07,16.93Z"/>
  </g>
  <g id="Layer_2" data-name="Layer 2">
    <g>
      <path class="cls-1" d="m411.45,182.43c-1.08-4.05-3.99-10.58-6.23-13.99-2.61-3.91-6.13-7.96-8.98-10.32-1.24-1.02-4.58-3.52-6.67-4.66-1.57-.84-5.49-2.46-7.49-3.14-3.61-1.23-11.21-2.08-14.27-1.81-1.88.17-6.44,1.2-10.14,2.32-.29.02-.58.07-.87.16-.65.2-1.42.51-2.22.89-.48.18-.91.36-1.26.54-.51.25-1.13.62-1.84,1.07-.31.18-.62.35-.89.52-1.59.96-3.6,2.48-5.54,4.11-1.6,1.27-2.99,2.45-3.77,3.25-.34.34-.71.76-1.1,1.23-.49.51-.91.97-1.23,1.37-.86,1.05-1.97,2.75-3.08,4.6-1.17,1.79-2.17,3.46-2.7,4.5-.27.55-.57,1.23-.89,2-.39.77-.69,1.43-.89,1.89-.56,1.38-1.13,3.28-1.64,5.34-.49,1.64-.89,3.22-1.12,4.51-.16.86-.31,2.02-.44,3.33-.11.7-.19,1.37-.26,1.99-.13,1.23-.18,2.77-.14,4.45-.04,1.6,0,3.12.11,4.33.4,3.78,1.36,8.7,1.83,10.29.08.27.19.53.32.77.93,3.1,2.13,6.12,3.44,8.6,1.73,3.24,4.66,7.64,7.35,10.69.67.77,1.33,1.45,1.95,2.01,2.83,2.53,8.67,6.83,12.28,8.33,2.67,1.09,8.34,2.52,12.32,3.04h.01c.74.09,1.42.16,2.01.18.17.01.36.01.55.01,3.87,0,10.76-1.26,13.84-2.35,4.19-1.51,10.59-5.64,13-7.73,2.52-2.21,7.25-7.73,9.34-11.28,1.67-2.85,4.46-9.17,5.34-12.49.96-3.69,1.88-10.48,1.93-14.25.04-3.55-1.06-10.95-1.96-14.3Zm-6.75,26.78c-.64,2.44-3.09,8.15-4.59,10.72-1.65,2.79-5.86,7.75-7.91,9.54-1.02.89-3.09,2.31-5.28,3.62-1.96,1.18-4,2.26-5.47,2.79-2.5.89-9.02,2.03-11.78,1.94-2.85-.11-9.46-1.68-11.94-2.7-1.68-.69-4.62-2.63-7.17-4.55-1.17-.88-2.26-1.76-3.09-2.51-2.16-1.95-5.73-6.88-7.8-10.77-1.68-3.18-3.21-7.66-3.99-11.67-.5-2.68-.82-6.1-.89-8.97.04-1.8.16-3.83.34-5.59.31-2.1.8-4.59,1.34-6.82.64-2.15,1.46-4.49,2.18-6.25.81-1.59,2.03-3.81,3.21-5.78,1.16-1.77,2.5-3.66,3.55-4.95,1.04-1.06,2.48-2.38,3.97-3.63,1.83-1.45,4.03-3.06,5.61-4.09.92-.52,1.76-.95,2.44-1.26,2.87-1.07,9.03-2.62,11.01-2.8,1.95-.16,8.68.54,11.38,1.46,1.78.61,5.33,2.1,6.42,2.68,1.43.78,4.29,2.87,5.55,3.91,2.32,1.91,5.37,5.45,7.59,8.78,1.8,2.73,4.43,8.64,5.31,11.92.81,3.06,1.75,9.8,1.72,12.41-.04,3.21-.89,9.43-1.71,12.57Z"/>
      <path class="cls-1" d="m436.68,340.8c-1.11-1.33-3.04-1.65-4.51-.75-.16.1-15.79,9.51-39.65,13.82-5.49.99-11.71,1.76-18.51,2.02-1.34.06-2.7.09-4.09.1-.86-.79-1.71-1.59-2.53-2.41-17-16.7-25.42-36.77-25.06-59.73.03-1.91.12-3.77.27-5.56.85-10.6,3.43-19.04,5-23.36.73-2.02,1.24-3.14,1.26-3.18.45-.96.43-2.08-.04-3.04-.39-.78-1.06-1.38-1.86-1.7-.06-.02-.11-.04-.14-.05-.09-.03-.19-.06-.29-.08-.05-.02-.1-.03-.16-.04-.15-.03-.48-.1-.98-.19-5.02-.86-26.72-3.63-41.73,9.87-10.07,9.05-14.76,23.27-13.97,42.33h0c.09,2.38.27,4.82.54,7.34.02.19.04.38.07.57.12,1.19.27,2.36.44,3.51,1.11,7.7,3,14.82,5.67,21.32.04.11.09.21.14.32,2.15,5.18,4.8,9.95,7.94,14.3,1.02,1.42,2.08,2.77,3.17,4.06,13.19,15.63,30.63,21.81,42.93,24.25,2.63.52,5.02.87,7.09,1.1,4.14.47,6.97.47,7.74.46.23.01.63.03,1.19.03,6.68,0,35.76-2.38,69.99-40.74,1.16-1.29,1.19-3.24.08-4.57Zm-134.17-2.81c-2.67-6.77-4.45-14.3-5.32-22.54-.36-3.32-.55-6.51-.57-9.53-.21-15.5,3.72-26.97,11.69-34.17,8.58-7.75,20.31-9.04,28.16-8.86,1.63.03,3.09.12,4.32.24-2.04,5.72-5.19,16.68-5.45,30.31-.03,1.33-.02,2.7,0,4.11.43,16.37,5.47,38.05,24.3,58.12-14.42-1.03-30.6-4.58-47.47-12.61-3.2-1.53-6.43-3.21-9.67-5.07Zm63.28,41.1c-.1-.01-.19-.01-.29-.01h-.07c-.36,0-35.53.4-55.26-26.97-.15-.21-.3-.42-.45-.64-.62-.87-1.22-1.77-1.79-2.69.74.36,1.49.72,2.23,1.07,20.96,9.79,40.9,13.05,57.94,13.14.17.03.35.04.52.04h.04c.15,0,.31,0,.46-.03,9.3-.02,17.72-.97,24.94-2.29,9.29-1.7,17.34-4.1,23.82-6.47-29.37,26.08-51.85,24.86-52.09,24.85Z"/>
      <path class="cls-1" d="m374.01,355.89c-.69,1.68-1.43,3.37-2.2,5.08-.58,1.29-1.83,2.04-3.15,2.06h-.04c-.17,0-.35,0-.52-.04-.31-.04-.62-.13-.92-.27-1.76-.79-2.55-2.87-1.75-4.63.68-1.52,1.34-3.02,1.96-4.51,10.45-25.03,12.09-46.22,4.86-63.03-3.57-8.29-8.86-14.31-13.87-18.53-4.19-3.54-8.17-5.81-10.78-7.09-1.86-.91-3.02-1.33-3.06-1.35-1.82-.63-2.79-2.62-2.16-4.45.09-.25.2-.49.34-.71.54-.87,1.43-1.45,2.42-1.61h.01c.4-.06.81-.05,1.22.03.06.01.11.02.16.04.1.02.2.05.29.08.03,0,.08.03.14.05,1.22.44,8.85,3.35,16.84,10.35,5.38,4.74,10.94,11.33,14.82,20.3,8.03,18.55,6.47,41.48-4.61,68.23Z"/>
      <path class="cls-1" d="m255.46,412.97c-.16,0-.31,0-.47-.03-1.92-.26-3.26-2.02-3-3.94,7.91-58.48,37.17-99.43,38.42-101.14,1.13-1.57,3.32-1.92,4.89-.78,1.57,1.13,1.92,3.32.78,4.89-.29.41-29.49,41.32-37.15,97.98-.24,1.76-1.74,3.03-3.46,3.03Z"/>
      <path class="cls-1" d="m306.03,416.65c-4.9-10.98-12.76-21.76-22.17-25.57-3.5-1.42-7.79-2.14-12.52-.76-3.22.92-6.63,2.82-10.14,6.12-2.87,2.72-5.81,6.37-8.74,11.21-.12.2-.24.4-.36.59h0s0,.02,0,.02c-13.25,21.79-27.51,39.51-42.46,52.8-1.55,1.38-3.11,2.71-4.67,3.99-15.33,12.56-37.05,14.28-54.22,4.71-.09-.05-.19-.1-.28-.15-1.17-.66-2.31-1.38-3.43-2.14-25.48-17.42-41.89-42.82-48.26-53.95t-.01-.02c-1.95-3.41-2.96-5.48-3-5.56-.06-.13-.14-.26-.21-.38-.07-.1-.12-.16-.14-.19-.02-.02-.04-.05-.06-.07-.06-.08-.13-.16-.2-.23-.19-.21-.41-.39-.64-.54-.1-.07-.21-.13-.32-.18-.02-.01-.03-.02-.05-.03-.11-.05-.23-.1-.35-.14-.12-.05-.24-.08-.36-.11-.02-.01-.05-.01-.08-.02-.11-.02-.23-.04-.34-.06-.3-.04-.6-.04-.9.01-.17.02-.34.06-.5.11-.06.01-.12.03-.18.05-.09.03-.18.07-.26.11-.03.02-.06.03-.1.05-.15.07-.29.16-.43.25-.13.09-.26.19-.38.29-.01.02-.02.03-.03.03-.19.18-.37.38-.52.6-.14.21-.27.45-.37.69-.1.25-.17.51-.2.78-.01.09-.02.18-.03.27,0,.02,0,.05-.01.09,0,.31.02.63.1.95,1.05,4.42,2.23,8.71,3.51,12.84,1.01,3.24,2.08,6.4,3.21,9.46,1.24,3.38,2.56,6.65,3.93,9.81,14.3,33.06,34.85,54.81,47.62,66.07,8.22,7.25,17.97,12.55,28.19,15.34,7.64,2.08,14.64,2.99,21.08,2.99,19.87,0,34.43-8.63,46.38-17.97.27-.21.55-.43.82-.64.03-.03.07-.06.11-.09,7.4-5.86,14.28-11.04,20.93-16.04,10.06-7.57,18.96-14.26,26.26-20.87,1.06-.96,2.1-1.92,3.09-2.9,2.81-2.71,5.33-5.43,7.54-8.22h.01c3.09-3.91,5.55-7.93,7.29-12.22h0c.85-2.06,1.52-4.17,2.02-6.36.07-.3.13-.62.17-.95.15-.98.2-2.09.17-3.3-.16-5.5-2.14-13.08-5.5-20.57Zm-18.14,48.07c-7.27,6.81-16.52,13.76-27.12,21.73-6.43,4.83-13.05,9.82-20.19,15.46-.29.22-.58.46-.88.69-.49.39-.99.78-1.49,1.16-2.25,1.75-4.61,3.46-7.1,5.07-13.3,8.67-30.12,14.61-53.61,8.2-9.2-2.5-17.98-7.29-25.4-13.83-12.88-11.36-33.97-33.79-47.77-68.25,8.93,12.16,21.86,26.75,38.75,38.3,1.28.87,2.58,1.69,3.91,2.43,7.6,4.31,15.98,6.67,24.44,7.1h.01c13.47.72,27.11-3.43,37.96-12.32,1.14-.94,2.28-1.89,3.41-2.88,16.12-13.99,31.43-32.85,45.55-56.17.03-.05.06-.09.09-.14.03-.06.07-.11.11-.17,4.2-6.89,8.48-11.34,12.82-13.31,3.26-1.47,6.56-1.55,9.86-.22,14.75,5.97,24.9,34.57,23.13,42.34-.35,1.51-.8,2.99-1.35,4.44-2.74,7.18-7.98,13.7-15.13,20.37Z"/>
      <path class="cls-1" d="m236.62,509.01c-41.73,0-84.67-28.97-89.96-33.59-1.46-1.27-1.6-3.48-.33-4.94s3.48-1.6,4.94-.33c4.98,4.35,49.96,34.27,90.39,31.71,1.92-.13,3.59,1.34,3.71,3.27.12,1.93-1.34,3.59-3.27,3.71-1.82.12-3.65.17-5.47.17Z"/>
      <path class="cls-1" d="m358.65,382.71c-.07.23-.37,1.25-.97,2.91-2.26,6.26-8.69,21.62-22.4,38.03-1.46,1.75-3,3.51-4.63,5.27-5.07,5.48-10.96,10.97-17.81,16.2-1.19.91-2.41,1.81-3.67,2.7h0c-.28.21-.56.41-.85.61-.61.43-1.32.63-2.01.63-1.1,0-2.19-.52-2.87-1.49s-.8-2.18-.42-3.22c.23-.64.66-1.23,1.27-1.65,2.2-1.54,4.3-3.12,6.32-4.73h0c.31-.24.62-.49.92-.75,24.66-19.98,35.58-43.66,39.06-52.7.91-2.33,1.31-3.69,1.33-3.76.54-1.86,2.48-2.92,4.34-2.38,1.85.53,2.92,2.48,2.39,4.33Z"/>
      <path class="cls-1" d="m403.46,628.31c0,.12-.01.23-.02.35-.03.31-.1.61-.21.89-.03.08-.06.15-.1.23-.07.17-.16.33-.26.48-.06.08-.12.16-.18.24-.23.29-.5.54-.81.74-.08.05-.16.1-.24.14-.37.21-.79.35-1.23.4-.15.03-.3.04-.45.04-.12,0-.24-.01-.35-.02-.52-.05-1.01-.22-1.44-.48-.09-.05-.18-.11-.26-.17-.08-.06-.16-.12-.24-.19-.08-.07-.15-.14-.22-.21-.08-.08-.14-.15-.21-.23-.06-.09-.13-.17-.18-.26-.06-.07-.1-.14-.14-.22-.06-.09-.11-.19-.15-.3-.04-.07-.07-.14-.09-.22-.1-.24-.16-.49-.19-.76-3.45-25.94-18.49-52.28-33.62-73.06h-.01c-10.87-14.93-21.79-26.99-28.51-33.99,0-.01,0-.01-.03-.02-.99-1.04-1.89-1.97-2.69-2.78-2.64-2.67-5.67-5.25-9.25-7.87-.73-.54-1.46-1.09-2.17-1.66t-.01-.01c-7.73-6.15-14.31-14.1-18.93-22.18-.02-.02-.03-.03-.03-.05-3.71-6.49-6.16-13.07-6.91-18.87-.6-4.49-.18-8.51,1.43-11.68.88-1.72,2.98-2.4,4.71-1.53,1.72.88,2.4,2.99,1.53,4.71-.05.09-.09.18-.12.27h-.01c-3.71,8.24,5.66,31.47,24.64,45.35,3.89,2.85,7.19,5.66,10.1,8.6,4.67,4.73,11.99,12.48,20.1,22.3h.01c4.68,5.67,9.63,12.04,14.48,18.93.75,1.06,1.5,2.13,2.24,3.22,9.07,13.23,16.17,26.02,21.25,38.26,4.5,10.83,7.43,21.23,8.74,31.15.02.15.03.31.03.46Z"/>
      <path class="cls-1" d="m403.46,628.22v.09c0,.12-.01.23-.02.35-.03.31-.1.61-.21.89-.03.08-.06.15-.1.23-.07.17-.16.33-.26.48-.06.08-.12.16-.18.24-.23.29-.5.54-.81.74-.08.05-.16.1-.24.14-.37.21-.79.35-1.23.4-.11.02-.23.03-.35.03-.04.01-.07.01-.1.01-.12,0-.24-.01-.35-.02-.52-.05-1.01-.22-1.44-.48-.09-.05-.18-.11-.26-.17-.08-.06-.16-.12-.24-.19-.08-.07-.15-.14-.22-.21-.08-.08-.14-.15-.21-.23-.06-.09-.13-.17-.18-.26-.06-.07-.1-.14-.14-.22-.06-.09-.11-.19-.15-.3-.04-.07-.07-.14-.09-.22-.1-.24-.16-.49-.19-.76-.02-.11-.03-.23-.03-.35-.26-9.78-.81-20.46-1.77-31.71-1.2-13.99-3.05-28.86-5.83-43.94-.21-1.18-.43-2.35-.66-3.52h-.01c-1-5.23-2.13-10.48-3.37-15.72h-.01c-5.35-22.5-12.99-44.88-23.83-65-12.98-24.09-25.72-35.84-30.33-39.6-1.13-.92-1.77-1.36-1.8-1.38-1.6-1.07-2.03-3.25-.96-4.85,1.07-1.6,3.24-2.04,4.84-.97.15.1,1.05.71,2.55,1.93,5.34,4.36,18.27,16.51,31.53,40.94,8.87,16.34,18.87,40.24,26.21,73.43h.01c.94,4.25,1.84,8.66,2.68,13.23h0c4.07,21.92,6.95,47.44,7.75,76.97Z"/>
      <path class="cls-1" d="m486.49,639.54c-1.2-1.35-3.23-1.57-4.69-.49-.08.06-4.94,3.6-12.57,7.18-4.68,2.19-10.4,4.39-16.69,5.81-17.83,4.01-33.2.37-45.83-10.84-2.67-2.36-5.22-5.07-7.64-8.11-.75-.93-1.91-1.41-3.09-1.3-1.19.12-2.23.84-2.77,1.9-.04.07-1.89,3.64-5.37,7.51-3.35,3.75-8.21,7.76-14.41,9.16-1.49.34-2.59,1.61-2.71,3.14-.13,1.52.76,2.95,2.18,3.52.75.3,18.6,7.41,41.49,9.54,4.18.39,8.25.58,12.21.58,21.6,0,39.78-5.75,53.45-16.93,2.25-1.84,4.38-3.82,6.38-5.95,1.24-1.32,1.27-3.37.06-4.72Zm-102.35,13.89c5.92-3.61,10.14-8.65,12.64-12.23,10.82,11.93,22.81,17.17,34.07,18.79-18.77.69-36.58-3.54-46.71-6.56Z"/>
      <path class="cls-1" d="m98.77,413.52s0-.01-.01-.02c-1.43-3.29-2.77-5.32-3.21-5.94-.07-.1-.12-.16-.14-.19-.02-.02-.04-.05-.06-.07-.06-.08-.13-.16-.2-.23-.19-.21-.41-.39-.64-.54-.1-.07-.21-.13-.32-.18-.02-.01-.03-.02-.05-.03-.11-.05-.23-.1-.35-.14-.12-.05-.24-.08-.36-.11-.02-.01-.05-.01-.08-.02-.11-.02-.23-.04-.34-.06-.3-.03-.6-.03-.9.01-.17.02-.34.06-.5.11-.15.05-.3.1-.44.16-.03.02-.06.03-.1.05-.15.07-.29.16-.43.25-.13.09-.26.19-.38.29-.01.02-.02.03-.03.03-.19.18-.37.38-.52.6-.14.21-.27.45-.37.69-.09.25-.16.51-.2.78-.01.09-.02.18-.03.27,0,.02,0,.05-.01.09-.18,2.27-3.5,33.76-46.37,51.23-1.7.69-2.58,2.57-2.01,4.32.47,1.47,1.84,2.42,3.33,2.42.27,0,.55-.03.83-.1.57-.14,14.23-3.49,28.14-8.85,13.63-5.27,22.52-10.54,26.83-15.96,2.08-2.59,3.11-5.22,3.11-7.9,0-9.2-2.17-16.32-4.19-20.96Zm-2.81,20.96c0,5.17-10.61,11.33-23.67,16.6,11.35-9.65,17.3-20.02,20.42-27.97.4-1.03.76-2.02,1.07-2.96,1.06,3.3,1.95,7.48,2.14,12.42.03.62.04,1.26.04,1.91Z"/>
      <path class="cls-1" d="m449.61,314.51c-1.12-2.79-3.55-4.81-6.5-5.41-2.93-.6-5.92.29-8.02,2.39-3.4,3.38-5.56,7.54-6.44,12.37-.96,5.29.71,8.61,2.28,10.46,3.66,4.31,9.72,4.53,10.91,4.53h.15c.29-.01.59-.05.87-.13.52-.14,5.12-1.55,7.62-6.63,1.01-2.04,1.51-4.35,1.51-6.89,0-3.19-.79-6.77-2.38-10.69Zm-5.36,14.38c-.84,1.8-2.25,2.63-2.91,2.94-1.24-.09-3.8-.54-5.07-2.04-.33-.38-1.31-1.53-.74-4.68.62-3.39,2.13-6.31,4.5-8.66.42-.43.9-.54,1.27-.54.16,0,.3.02.4.05.31.06,1.07.3,1.42,1.17,2.01,4.98,2.4,9.05,1.13,11.76Z"/>
    </g>
  </g>
</svg>