<?xml version="1.0" encoding="UTF-8"?>
<svg xmlns="http://www.w3.org/2000/svg" viewBox="0 0 720 720">
  <defs>
    <style>
      .cls-1, .cls-2 {
        stroke-width: 0px;
      }

      .cls-2 {
        fill: #5c96ea;
      }
    </style>
  </defs>
  <g id="Layer_16" data-name="Layer 16">
    <rect class="cls-2" x="614.32" y="331.04" width="12" height="48" transform="translate(-94.41 357.73) rotate(-30)"/>
    <rect class="cls-2" x="145.03" y="16.65" width="12" height="48" transform="translate(-5.3 35.73) rotate(-13.26)"/>
    <rect class="cls-2" x="537.91" y="389.1" width="12" height="48" transform="translate(629.71 -264.49) rotate(60)"/>
    <rect class="cls-2" x="128.77" y="137.09" width="12" height="48" transform="translate(295.86 26.32) rotate(90)"/>
    <rect class="cls-2" x="657" y="206.96" width="12" height="48" transform="translate(893.97 -432.04) rotate(90)"/>
    <rect class="cls-2" x="319.74" y="58.24" width="12" height="48" transform="translate(84.76 -151.85) rotate(30)"/>
    <rect class="cls-2" x="39.12" y="50.03" width="12" height="48" transform="translate(131.6 67.99) rotate(117.37)"/>
    <rect class="cls-2" x="671.94" y="504.94" width="12" height="48" transform="translate(1475 206.3) rotate(120)"/>
    <polygon class="cls-2" points="239.71 667.14 100.41 667.14 29.83 641.2 169.13 641.2 239.71 667.14"/>
    <polygon class="cls-2" points="306 667.14 279.4 667.14 208.83 641.2 235.43 641.2 306 667.14"/>
    <polygon class="cls-2" points="372.29 667.14 345.69 667.14 275.12 641.2 301.72 641.2 372.29 667.14"/>
    <polygon class="cls-2" points="60.71 667.14 21.97 667.14 -48.6 641.2 -9.86 641.2 60.71 667.14"/>
    <polygon class="cls-2" points="551.29 667.14 411.99 667.14 341.41 641.2 480.71 641.2 551.29 667.14"/>
    <rect class="cls-2" x="563.9" y="126.96" width="12" height="48" transform="translate(415.69 -418.06) rotate(60)"/>
    <rect class="cls-2" x="657" y="103.18" width="12" height="48" transform="translate(152.42 -314.46) rotate(30)"/>
    <rect class="cls-2" x="512.94" y="38.69" width="12" height="48" transform="translate(581.63 -456.24) rotate(90)"/>
  </g>
  <g id="Layer_2" data-name="Layer 2">
    <path class="cls-1" d="m417.92,251.24c-3.69,0-10.5-1.24-13.49-2.26-3.5-1.21-9.26-4.96-12.07-7.19-3.06-2.46-7.23-7.78-9.5-11.5-1.37-2.26-2.66-5.04-3.71-7.93-.14-.22-.26-.46-.35-.72-.53-1.49-1.72-6.09-2.29-9.63-.18-1.12-.29-2.53-.35-4.04-.13-1.61-.17-3.09-.11-4.28.03-.6.08-1.25.14-1.94.05-1.22.13-2.31.23-3.12.15-1.23.44-2.74.81-4.32.37-1.98.81-3.81,1.27-5.15.15-.44.4-1.07.72-1.81.26-.75.51-1.41.74-1.95.44-1.03,1.3-2.67,2.32-4.44.94-1.8,1.89-3.46,2.64-4.5.28-.39.64-.83,1.06-1.32.35-.48.69-.91.99-1.26.7-.8,1.98-2.02,3.44-3.32,1.73-1.63,3.53-3.17,4.97-4.15.25-.17.53-.35.82-.54.64-.46,1.22-.85,1.68-1.12.34-.19.75-.4,1.22-.61.72-.39,1.42-.72,2.01-.94.26-.1.53-.16.8-.2,3.44-1.27,7.68-2.49,9.47-2.76,2.88-.42,10.13-.04,13.62.93,1.94.55,5.73,1.86,7.25,2.56,2.04.96,5.34,3.14,6.58,4.04,2.83,2.07,6.38,5.71,9.06,9.27,2.31,3.09,5.43,9.11,6.67,12.88,1.03,3.12,2.47,10.05,2.64,13.4.16,3.6-.34,10.07-1.05,13.58-.65,3.19-2.93,9.32-4.35,12.1-1.78,3.47-5.95,8.95-8.22,11.18-2.15,2.1-7.98,6.37-11.88,8.03-2.99,1.26-9.93,2.93-13.48,3.02-.09,0-.18,0-.27,0Zm-34.79-43.62c.22,2.67.71,5.84,1.33,8.32.95,3.72,2.63,7.83,4.37,10.71,2.15,3.53,5.77,7.96,7.89,9.67,2.6,2.07,7.65,5.23,9.99,6.04,2.38.81,8.59,1.91,11.33,1.88,2.58-.06,8.62-1.5,10.9-2.46,2.85-1.21,7.99-4.91,9.71-6.59,1.83-1.79,5.5-6.66,6.89-9.37,1.26-2.48,3.25-7.97,3.72-10.3.59-2.97,1.05-8.85.92-11.88-.12-2.44-1.37-8.71-2.29-11.53-1-3.02-3.79-8.41-5.63-10.88-2.26-3-5.31-6.15-7.58-7.81-1.24-.9-4.04-2.71-5.41-3.36-1.03-.48-4.45-1.67-6.17-2.16-2.56-.71-8.89-1.01-10.71-.75-1.83.28-7.48,2.05-10.12,3.21-.63.34-1.41.8-2.25,1.34-1.41,1.04-3.35,2.64-4.97,4.08-1.35,1.28-2.65,2.62-3.57,3.68-.88,1.23-2.01,3.04-3.01,4.75-1.01,1.93-2.05,4.13-2.73,5.67-.57,1.69-1.21,3.92-1.69,5.96-.39,2.11-.71,4.45-.89,6.43-.07,1.69-.08,3.63-.01,5.34Z"/>
    <path class="cls-1" d="m348.21,290.08c-21.94,0-49.3-7.99-81.63-23.86-11.56-5.68-22.15-11.61-30.8-16.76-16.79-6.39-23.13-14.69-23.61-15.34-1.01-1.38-.88-3.3.33-4.52,1.2-1.22,3.11-1.4,4.51-.41.27.19,8.69,6.08,21.79,13.89,22.55,8.41,50.2,7.45,69.72,5.09,73.16-8.85,87.74,10.42,89.16,12.64.71,1.11.73,2.53.06,3.66-7.52,12.75-18.87,20.83-33.72,24.02-4.91,1.06-10.19,1.58-15.83,1.58Zm-87.04-34.5c30.87,16.1,71.72,32.45,101.4,26.07,11.96-2.57,21.27-8.78,27.74-18.48-5.03-4.11-24.16-14.92-80.94-8.06-19.47,2.35-35.35,2.11-48.2.46Z"/>
    <path class="cls-1" d="m406.87,337.38c-.52,2.42-1.14,4.89-1.86,7.4-.83,2.86-1.79,5.77-2.9,8.72-.5,1.34-1.03,2.69-1.6,4.04-.56,1.33-1.15,2.68-1.77,4.02-1.5,3.26-3.2,6.56-5.12,9.87-2.05,3.58-4.35,7.18-6.93,10.79-2.36,3.3-4.94,6.61-7.76,9.91-4.35,5.09-9.29,10.17-14.87,15.19-.67.6-1.51.9-2.34.9-.96,0-1.91-.39-2.6-1.16-1.3-1.44-1.18-3.65.26-4.94,3.55-3.2,6.89-6.46,10.01-9.78,1.09-1.17,2.16-2.34,3.2-3.53,1.04-1.18,2.05-2.37,3.04-3.57,5.97-7.25,10.96-14.78,14.95-22.58.64-1.25,1.26-2.51,1.85-3.78.58-1.24,1.13-2.49,1.66-3.75,2.27-5.38,4.08-10.89,5.44-16.51.1-.41.19-.83.29-1.24,2.08-9.1,2.96-18.5,2.64-28.18-.88-26.13-10.7-44.66-10.8-44.84-.91-1.71-.28-3.83,1.42-4.75,1.7-.91,3.82-.28,4.74,1.42.43.8,10.62,19.92,11.62,47.61.31,8.42-.26,18.18-2.57,28.74Z"/>
    <path class="cls-1" d="m452.79,590.13c-.14,0-.27,0-.41-.02-1.71-.2-3.02-1.62-3.09-3.34-1.98-50.28-25.54-82.46-44.96-100.6-12.14-11.34-27.43-18.52-44.23-20.76-46.83-6.24-75.47-18.5-85.11-36.42-6.37-11.83-2.98-26.57,8.04-35.07.04-.03.08-.06.12-.09,27.54-21.21,64.62-107.82,64.99-108.69.76-1.78,2.81-2.61,4.59-1.85,1.78.76,2.61,2.81,1.85,4.59-1.4,3.29-31.61,73.83-58.83,103.66,44.91-4.66,81.91,15.86,92.81,22.71,2.41,1.51,5.02,3.02,8.48,4.9,37.85,20.49,60.06,56.18,64.25,103.22,3.13,35.25-4.79,64-5.13,65.21-.43,1.52-1.82,2.55-3.37,2.55Zm-166.06-190.21c-7.83,6.46-10.19,17.16-5.57,25.75,5.86,10.89,24.47,25.41,79.88,32.8,18.25,2.43,34.87,10.24,48.08,22.58,17.08,15.95,37.21,42.24,44.5,81.33,1.27-10.89,2.02-24.73.68-39.6-4.07-45.12-24.45-77.92-60.59-97.48-3.6-1.95-6.33-3.53-8.88-5.13-11.17-7.02-51.11-29.14-98.1-20.25Z"/>
    <path class="cls-1" d="m217.61,497.22c-12.61,0-17.71-4.33-18.33-4.91-.88-.82-1.28-2.03-1.06-3.21.22-1.18,1.03-2.17,2.14-2.61,20.9-8.37,48.88-23.58,63.46-48.46,8.66-14.77,8.48-26.16,8.48-26.27-.05-1.93,1.47-3.54,3.4-3.59,1.92-.07,3.54,1.45,3.6,3.38.02.53.31,13.12-9.15,29.53-7.97,13.81-24.65,33.01-59.24,48.54,11.96,2.12,41.26-.11,101.01-40.76,1.6-1.09,3.78-.67,4.86.92,1.09,1.6.67,3.78-.92,4.86-37.11,25.24-67.66,39.41-90.81,42.11-2.73.32-5.2.45-7.44.45Z"/>
    <path class="cls-1" d="m201.65,493.24c-.56,0-1.13-.14-1.66-.42-1.25-.67-30.75-17.16-45.67-72.28-.48-1.79.51-3.64,2.26-4.23,1.76-.59,3.67.29,4.36,2.01.04.1,4.65,11.05,18.06,20.91,17.83,13.12,43.13,18.41,73.18,15.32,1.93-.21,3.64,1.2,3.84,3.12.2,1.92-1.2,3.64-3.12,3.84-22.34,2.3-54.08,1.23-78.44-16.93-2.43-1.81-4.6-3.65-6.52-5.47,6.43,15.69,13.83,26.47,19.62,33.33,8.67,10.27,15.69,14.19,15.76,14.23,1.69.93,2.32,3.05,1.39,4.75-.63,1.17-1.83,1.83-3.08,1.83Z"/>
    <path class="cls-1" d="m407.73,307.95c-.98,0-1.93-.11-2.83-.32-1.88-.44-3.05-2.32-2.62-4.2.44-1.88,2.31-3.05,4.2-2.62,3.09.72,12.84-.53,36.51-27.51,3.96-4.51,7.72-9.08,11.07-13.31-35.94,22.09-57.39,11.76-58.42,11.23-1.72-.87-2.41-2.98-1.54-4.7.87-1.72,2.96-2.41,4.68-1.55.14.07,6.61,3.1,18.23,1.74,10.94-1.28,28.77-6.82,51.57-25.91,1.34-1.12,3.31-1.08,4.61.1,1.29,1.18,1.51,3.14.51,4.58-.12.17-11.63,16.67-25.42,32.4-17.7,20.18-31.02,30.07-40.56,30.07Z"/>
    <path class="cls-1" d="m486.54,243.74c-1.17,0-2.26-.23-3.28-.7-.57-.26-1.12-.52-1.63-.78-6.54-3.3-9.61-10.97-7.13-17.84l14.69-40.71c.33-.91,1.02-1.64,1.9-2.02.89-.38,1.89-.38,2.78,0,5.6,2.42,15.03,11.12,10.61,26.69-1.01,3.57-.55,4.94-.31,5.14,1.04.86,5.93-.18,9.69-2.06,1.45-.73,3.21-.36,4.25.88,1.04,1.25,1.09,3.04.12,4.34-.23.31-5.68,7.57-12.34,14.47-8.19,8.49-14.46,12.58-19.36,12.58Zm7.73-53.46l-13.18,36.52h0c-1.28,3.54.31,7.5,3.69,9.21.43.21.88.43,1.36.65.91.42,5.34-.65,14.72-10.37,1.78-1.84,3.48-3.73,5.01-5.49-2.29.06-4.44-.46-6.16-1.88-2.95-2.44-3.61-6.63-1.96-12.44,2.46-8.67-.7-13.65-3.48-16.2Zm-16.47,35.33h0,0Z"/>
    <path class="cls-1" d="m192,237.97c-1.26,0-2.52-.13-3.77-.4-5.86-1.27-14.55-5.46-22.7-18.22-15.85-24.83,5.94-46.89,6.16-47.11.89-.88,2.17-1.22,3.38-.89,1.21.33,2.15,1.28,2.46,2.49,2.36,8.95,11.66,34.76,23.08,35.94,12.93,1.33,14.83-10.82,14.91-11.33.24-1.65,1.6-2.9,3.26-3,1.66-.09,3.16.99,3.58,2.6,1.68,6.35.03,17.49-17.32,34.5-3.59,3.52-8.28,5.43-13.05,5.43Zm-19.26-55.92c-4.51,6.7-10.26,19.52-1.32,33.53,5.42,8.49,11.74,13.73,18.28,15.14,3.69.8,7.6-.39,10.44-3.18,4.3-4.21,7.79-8.31,10.39-12.13-2.84,1.18-6.34,1.76-10.64,1.32-8.11-.83-15.52-8.19-22.01-21.88-2.22-4.68-3.95-9.28-5.14-12.81Z"/>
    <path class="cls-1" d="m478.81,630.38c-17.59,0-29.47-4.66-30.21-4.96-.98-.39-1.73-1.21-2.04-2.22-.31-1.01-.15-2.1.44-2.98.57-.86-2.4-5.54-7.97-9.7-.82-.61-1.33-1.55-1.4-2.57-.07-1.02.31-2.02,1.04-2.73l11.66-11.45c1.05-1.03,2.63-1.29,3.96-.66,27.52,13.17,52.3,16.39,71.66,9.33,14.5-5.29,21.06-14.58,21.12-14.68,1.02-1.47,2.99-1.94,4.56-1.09,1.57.86,2.25,2.75,1.56,4.41-.39.96-10.05,23.51-43.63,34.41-11.26,3.65-21.75,4.88-30.76,4.88Zm-24.76-10.51c7.43,2.22,28.6,7.01,53.35-1.02,7.95-2.58,14.43-5.89,19.67-9.37-25.44,8.66-53.56.24-73.58-9l-7.15,7.02c3.25,2.94,7.57,7.7,7.7,12.37Z"/>
    <path class="cls-1" d="m138.89,416.16c-9.17,0-18.78-2.16-27.14-8.58-7.19-5.52-12.32-13.68-14.45-22.97l-.4-1.75c-2.95-12.76-6.29-27.23.3-36.04.62-.83,1.57-1.34,2.6-1.4,1.03-.05,2.03.34,2.74,1.09l57.69,60.95c.84.89,1.16,2.15.83,3.34-.33,1.18-1.24,2.11-2.42,2.44-5.77,1.63-12.63,2.94-19.76,2.94Zm-37.9-61.12c-1.73,6.94.7,17.47,2.73,26.24l.41,1.77c1.77,7.71,5.99,14.45,11.89,18.98,8.92,6.85,20.67,8.82,35,5.86l-50.03-52.85Z"/>
    <g>
      <path class="cls-2" d="m-8.88,270.87s160.1,122.25,407.37,87.19l21.99-5.69-40.98,36.2s-100.39,8.84-394.07-77.62l5.68-40.08Z"/>
      <path class="cls-1" d="m423.96,351.99c-.01-.13-.04-.26-.07-.39-.01-.06-.02-.11-.04-.17-.03-.1-.06-.2-.1-.3-.05-.13-.11-.26-.18-.39.01,0,0,0,0-.02-.08-.14-.17-.28-.26-.41-.83-1.15-2.3-1.69-3.71-1.33l-6.89,1.78-10.6,2.74-4.31,1.12c-1.24.18-2.48.35-3.71.51-54.72,7.42-109.52,7.64-162.92.65-43.76-5.73-86.69-16.27-127.61-31.35-55.78-20.56-96.55-45.84-110.32-56.34-.99-.76-2.3-.93-3.45-.46-1.15.47-1.96,1.52-2.14,2.75l-5.68,40.08c-.24,1.72.81,3.36,2.48,3.85,83.85,24.68,205.29,57.1,307.67,71.34,40.03,5.57,64.66,6.64,77.27,6.69h.84c4.52,0,7.36-.13,8.7-.21.49-.04.78-.06.88-.07.75-.07,1.45-.37,2.01-.87l40.85-36.09c.06-.04.11-.09.16-.13.09-.08.17-.16.24-.25.09-.09.17-.19.24-.29.07-.1.14-.2.2-.31.06-.11.12-.22.17-.33.04-.1.08-.2.12-.3,0,0,.01-.03.01-.04.04-.12.07-.23.09-.35.03-.13.05-.25.06-.38.01-.12.02-.23.02-.34,0-.13-.01-.26-.02-.39Zm-45.87,33.16c-.58.03-1.4.07-2.46.09-8.91.26-34.94.13-83.14-6.6-100.68-14.07-219.87-45.75-303.16-70.2l4.45-31.38c12.7,8.77,50.26,32.86,107.09,53.83,41.43,15.29,84.9,25.99,129.2,31.81,52.64,6.9,106.59,6.89,160.51-.04,2.72-.35,5.44-.71,8.16-1.1.08-.01.16-.02.24-.03.13-.02.26-.05.38-.08l7.86-2.03-13.6,12.01-15.53,13.72Z"/>
    </g>
    <path class="cls-2" d="m412.71,350.76l-10.6,2.74c1.11-2.95,2.07-5.86,2.9-8.72l7.7,5.98Z"/>
    <path class="cls-1" d="m423.98,352.38c0,.11-.01.22-.02.34-.01.13-.03.25-.06.38-.02.12-.05.23-.09.35,0,0-.01.03-.01.04-.04.1-.08.2-.12.3-.05.11-.11.22-.17.33-.06.11-.13.21-.2.31-.01.03-.04.06-.06.09-.06.07-.11.14-.18.2-.07.09-.15.17-.24.25-.05.04-.1.09-.16.13-.63.51-1.41.77-2.19.77s-1.51-.24-2.15-.74l-.52-.4-1.61-1.25-3.49-2.72-7.7-5.98-4.14-3.21c-.94-.73-1.41-1.84-1.34-2.95.02-.42.12-.84.29-1.24.11-.25.26-.49.43-.72,1.19-1.52,3.38-1.8,4.91-.61l1.71,1.33,15.76,12.22c.27.21.5.45.68.71.09.13.18.27.26.41,0,.01.01.01,0,.02.07.13.13.26.18.39.04.1.07.2.1.3.02.06.03.11.04.17.03.13.05.26.07.39.01.13.02.26.02.39Z"/>
    <g>
      <path class="cls-2" d="m336.38,318.64s-138.37-3.84-215.08-58.34l-3.9,24.81s47.33,46.61,207,57.39l11.98-23.86Z"/>
      <path class="cls-1" d="m324.4,346c-.08,0-.16,0-.24,0-45.78-3.09-111.48-11.32-164.47-32.99-32.06-13.11-44.25-24.9-44.75-25.4-.8-.79-1.18-1.92-1-3.04l3.9-24.81c.19-1.2.98-2.21,2.1-2.68,1.12-.47,2.4-.33,3.39.37,74.95,53.25,211.78,57.66,213.15,57.7,1.2.03,2.29.68,2.91,1.7s.66,2.3.12,3.37l-11.98,23.86c-.6,1.19-1.81,1.93-3.13,1.93Zm-203.25-62.24c3.84,3.21,16.47,12.73,41.85,23.03,51.15,20.76,114.42,28.9,159.32,32.06l8.51-16.95c-11.51-.61-40.03-2.6-73.83-8.54-68.84-12.11-109.93-31.67-133.11-47.03l-2.74,17.43Z"/>
    </g>
  </g>
</svg>