<?xml version="1.0" encoding="UTF-8"?>
<svg xmlns="http://www.w3.org/2000/svg" viewBox="0 0 720 720">
  <defs>
    <style>
      .cls-1 {
        fill: none;
        stroke: #000;
        stroke-linecap: round;
        stroke-linejoin: round;
        stroke-width: 7px;
      }

      .cls-2, .cls-3 {
        stroke-width: 0px;
      }

      .cls-3 {
        fill: #5c96ea;
      }
    </style>
  </defs>
  <g id="Layer_3" data-name="Layer 3">
    <path class="cls-3" d="m593.84,551.79v43.64h-325.63v-15.9c10.26,4.75,23.45,7.64,40.38,7.59,0,0-26.46-2.7-40.38-25.34v-9.99h130.37c-4.71,17.24,2.76,39.36,72.23,39.23l29.88.7c-13.56-.6-59.55-5.19-67.7-39.93h79.23c3.81,6.79,12.01,15.41,29.48,17.72-4.89-4.33-10.97-10.44-15.96-17.72h68.11Z"/>
    <path class="cls-3" d="m284.59,422.32s12.44,16.72,30.86,17.23c8.05.22,27.94,5.33,52.35,7.01,0,0-.06.93-.29,2.56,0,0,0,0,0,.01-.3,2.09-.89,5.32-2.02,9.22-.29,1.2-.61,2.46-.96,3.81h-172.13V186.29h177.53v99.58c-14.62,7.24-30.52,17.36-47.52,31.28,0,0-68.54,44.99-37.83,105.17Z"/>
    <rect class="cls-3" x="124.05" y="186.3" width="42.54" height="275.87"/>
    <rect class="cls-3" x="81.89" y="186.3" width="27" height="275.87"/>
  </g>
  <g id="Layer_2" data-name="Layer 2">
    <path class="cls-1" d="m514.02,176.39c-1.33.41-3.95,1.69-6.36,3.13-3.8,2.3-10.33,8.02-12.57,10.74-2.37,2.91-7.17,11.6-8.23,14.18-1.59,3.91-3.26,11.91-3.78,16.65-.43,4.08.05,11.16.97,16.13.95,4.9,2.81,10.54,5.08,14.83,2.46,4.63,6.94,10.98,10.01,13.75,3.36,3.01,9.77,7.6,13.2,9.01,3.24,1.32,11.47,3.32,15.4,3.47,3.74.13,11.88-1.28,15.33-2.51,4.18-1.5,11.25-5.97,13.91-8.28,2.82-2.47,7.98-8.59,10.11-12.19,1.89-3.23,4.94-10.28,5.82-13.59,1.04-3.98,2.08-11.61,2.14-15.71.03-3.63-1.16-11.91-2.15-15.65-1.13-4.23-4.37-11.53-6.76-15.17-2.65-3.99-6.51-8.56-9.7-11.19-1.52-1.25-5.14-3.92-7.15-5.02-1.53-.82-5.88-2.63-8.15-3.42-3.73-1.27-12.12-2.17-15.02-1.92-2.93.26-12.48,2.67-15.51,4.16-2.96,1.49-10.73,7.35-13.01,9.68-2.51,2.57-7.33,9.83-8.76,12.68-1.64,3.29-4.22,10.9-4.96,14.97-.64,3.62-1.2,11.47-.81,15.38.46,4.37,1.57,9.87,1.99,11.33"/>
    <path class="cls-1" d="m469.21,418c-30.16,26.57-68.15,30.56-99.27,28.7-.71-.04-1.43-.09-2.13-.14-24.42-1.68-44.3-6.79-52.35-7.01-18.42-.5-30.86-17.23-30.86-17.23-30.72-60.18,37.83-105.17,37.83-105.17,17-13.92,32.9-24.03,47.52-31.28,65.07-32.23,104.95-7.57,104.95-7.57,0,0-21.2,10.56-24.73,42.39-3.54,31.83,24.73,75.15,24.73,75.15l14.95,21.21c8.7,12.34,14.92,26.25,18.32,40.97l12.2,52.78-.38-31.09-.46-38.5s-14.01-132.19-27.21-145.64"/>
    <path class="cls-1" d="m284.59,422.32s30.01,28.77,95.8-10.35c0,0,34.76-20.4,47.26-23.57,12.5-3.17,34.33-10.89,47.25,7.44"/>
    <path class="cls-1" d="m259.06,516.71c35.15,21.85,54.59,15.09,54.59,15.09,87.21-3.31,107.81-89.17,107.81-89.17"/>
    <path class="cls-1" d="m268.21,579.53c-46.02-21.33-32.86-80.28-32.86-80.28,8.55,7.24,16.46,12.96,23.71,17.46l1.45,22.57c1.2,9.11,4.02,16.51,7.71,22.5,13.92,22.64,40.38,25.34,40.38,25.34-16.93.05-30.13-2.83-40.38-7.59"/>
    <path class="cls-1" d="m313.65,531.87c30.05-5.89,44.93-47.16,50.88-69.71.35-1.34.67-2.61.96-3.81,1.03-4.18,1.68-7.41,2.02-9.22,0,0,0,0,0-.01.2-1.04.29-1.6.29-1.6"/>
    <path class="cls-1" d="m235.35,499.25c92.55,27.68,120.55-13.01,128.94-37.09.45-1.32.86-2.6,1.2-3.81,1.13-3.9,1.72-7.13,2.02-9.22,0,0,0,0,0-.01.23-1.63.29-2.56.29-2.56"/>
    <path class="cls-1" d="m447.52,436.08s12.47,41.57-37.98,95.72c0,0-7.95,9-10.95,19.99-4.71,17.24,2.76,39.36,72.23,39.24l29.88.7,3.77.09s-1.38.02-3.77-.09c-13.56-.59-59.55-5.19-67.7-39.93-1.51-6.45-1.72-13.93-.17-22.62"/>
    <path class="cls-1" d="m432.81,529.17s63.52-60.54,65-99.07"/>
    <path class="cls-2" d="m554.39,570.72c-.18-.12-11.08-7.73-19.94-18.93-4.86-6.15-9.1-13.38-10.61-21.05l-2.41-11.5c-.3-1.44-1.48-2.53-2.93-2.74-1.46-.2-2.89.52-3.58,1.83l-12.46,23.51c-.34.64-.48,1.37-.38,2.08.03.22.46,3.47,2.39,7.88,1.21,2.77,3.02,6.01,5.69,9.21,11.02,13.22,28.2,16.11,41.11,16.11.41,0,.8,0,1.2,0,1.52-.02,2.86-1.02,3.3-2.48.45-1.46-.11-3.04-1.36-3.9Zm-42.18-18.93c-1.88-3.35-2.69-6.26-3.01-7.74l7.36-13.91.42,1.99c1.39,7.11,4.72,13.76,8.74,19.66,4.99,7.29,11.07,13.4,15.96,17.72-17.46-2.32-25.67-10.93-29.48-17.72Z"/>
  </g>
</svg>