<?xml version="1.0" encoding="UTF-8"?>
<svg xmlns="http://www.w3.org/2000/svg" viewBox="0 0 720 720">
  <defs>
    <style>
      .cls-1, .cls-2 {
        stroke-width: 0px;
      }

      .cls-2 {
        fill: #5c96ea;
      }
    </style>
  </defs>
  <g id="Layer_13" data-name="Layer 13">
    <polygon class="cls-2" points="653.79 732.68 584.7 732.68 749.67 276.93 818.75 276.93 653.79 732.68"/>
    <g>
      <polygon class="cls-2" points="495.76 633.3 490.57 645.75 477.56 645.75 482.74 633.3 495.76 633.3"/>
      <polygon class="cls-2" points="438.46 633.3 433.27 645.75 420.25 645.75 425.44 633.3 438.46 633.3"/>
      <polygon class="cls-2" points="464.15 633.3 458.96 645.75 445.95 645.75 451.14 633.3 464.15 633.3"/>
      <polygon class="cls-2" points="534.26 633.3 529.08 645.75 516.06 645.75 521.25 633.3 534.26 633.3"/>
      <polygon class="cls-2" points="586.57 633.3 581.39 645.75 568.36 645.75 573.55 633.3 586.57 633.3"/>
    </g>
    <path class="cls-2" d="m410.49,645.75H62.17v-141.28l236.96,96.11,10.73,4.35c2.52,2.79,4.96,6.51,5.37,10.76l29.68,3.46,24.37,9.88,41.21,16.72Z"/>
    <path class="cls-2" d="m86.93,403.42l9.91-23.79c.39,1.52.64,3.15.71,4.87.42,9.76-7.28,16.48-10.62,18.92Z"/>
    <path class="cls-2" d="m180.64,262.36c4.61-1.97,8.91-4.13,12.85-6.33l-4.19,10.07-38.97,93.53-2.89,6.96-14.07,33.78-2.83,6.78-26.86,64.49-4.28,10.27c-5.36,2.66-10.91,4.92-16.66,6.67-9.96,3.04-18.3,3.87-24.45,3.87h-8.44l.23-.55,6.32-15.19c37.88-32.13,53.97-81.49,56.61-90.3-1.68-3.13-3.01-6.34-3.99-9.62-3.21-10.78-1.9-20.05-.09-26.18l3.29-7.91c.11-.18.24-.34.39-.5,38.9-42.24,42.23-60.86,42.42-65.07-5.12.83-10.5,1.34-16.08,1.4l2.9-6.96c12.71-.52,25.66-3.59,38.79-9.21Z"/>
    <path class="cls-2" d="m203.79,231.31l-2.77,6.65c-7.05-1.22-15.57-2.24-24.94-2.45-5.94-.13-12.55.07-19.56.84l3.06-7.34c5.5-.47,11.14-.63,16.88-.49,10.44.24,19.77,1.42,27.33,2.79Z"/>
    <path class="cls-2" d="m243.29,136.48l-1.48,3.55-27.79,66.71-3,7.22c-.26-.27-.5-.53-.73-.78-1.89-2.08-3.81-4.73-5.48-7.53-.19-.19-.35-.4-.49-.64-.85-1.42-3.01-5.95-4.34-9.55-.41-1.15-.82-2.61-1.19-4.19-.45-1.62-.79-3.13-.97-4.37-.09-.63-.17-1.33-.25-2.06-.18-1.28-.32-2.42-.39-3.28-.09-1.32-.09-2.97-.03-4.7-.01-2.12.08-4.09.28-5.57.07-.47.2-1.15.38-1.97.12-.86.25-1.62.38-2.25.26-1.19.86-3.16,1.59-5.28.6-2,1.23-3.84,1.77-5.01.22-.46.5-.99.84-1.59.27-.57.53-1.09.77-1.51.57-.98,1.64-2.49,2.9-4.13,1.47-2.06,3.04-4.02,4.33-5.34.23-.23.47-.47.73-.72.58-.62,1.11-1.14,1.54-1.51.3-.26.67-.55,1.1-.85.69-.56,1.35-1.06,1.93-1.41.25-.16.53-.28.81-.36,1.64-1,3.49-2.02,5.15-2.88h21.64Z"/>
    <path class="cls-2" d="m174.4,185.3h0l-15.74,7.26c-4.04,1.86-4.99,7.18-1.84,10.33h0c3.15,3.15,8.46,2.2,10.33-1.84l7.26-15.74Z"/>
  </g>
  <g id="Layer_2" data-name="Layer 2">
    <path class="cls-1" d="m282.1,170.15c-.85-3.45-3.75-10.38-5.45-13.42-2.06-3.67-6.51-9.29-9.54-12.04-3.49-3.17-7.92-6.23-11.29-7.82-1.48-.69-5.36-2.3-7.65-2.88-1.71-.42-5.92-1.02-8.07-1.2-3.81-.29-11.41.77-14.32,1.78-.91.32-2.42,1.03-4.13,1.91-1.66.86-3.51,1.88-5.15,2.88-.28.08-.56.2-.81.36-.58.35-1.24.85-1.93,1.41-.43.3-.8.59-1.1.85-.43.37-.96.89-1.54,1.51-.26.25-.5.49-.73.72-1.29,1.32-2.86,3.28-4.33,5.34-1.26,1.64-2.33,3.15-2.9,4.13-.24.42-.5.94-.77,1.51-.34.6-.62,1.13-.84,1.59-.54,1.17-1.17,3.01-1.77,5.01-.73,2.12-1.33,4.09-1.59,5.28-.13.63-.26,1.39-.38,2.25-.18.82-.31,1.5-.38,1.97-.2,1.48-.29,3.45-.28,5.57-.06,1.73-.06,3.38.03,4.7.07.86.21,2,.39,3.28.08.73.16,1.43.25,2.06.18,1.24.52,2.75.97,4.37.37,1.58.78,3.04,1.19,4.19,1.33,3.6,3.49,8.13,4.34,9.55.14.24.3.45.49.64,1.67,2.8,3.59,5.45,5.48,7.53.23.25.47.51.73.78,3.17,3.32,8.06,7.47,11.47,9.27,3.37,1.75,10.1,4.49,14.01,5.05,1.34.19,3.33.28,5.48.28,3.32,0,7.01-.23,9.27-.71,3.68-.8,10.55-3.94,13.41-5.85,3.72-2.52,8.91-8.13,10.73-10.75,1.9-2.78,5.13-9.32,6.29-13.28.91-3.19,2.05-10.03,2.08-13.47.02-3.82-.77-10.65-1.66-14.35Zm-7.15,25.88c-.91,3.11-3.78,8.99-5.33,11.25-1.46,2.11-6.12,7.05-8.87,8.91-2.21,1.48-8.27,4.23-10.97,4.82-2.81.6-9.63.71-12.3.34-2.65-.38-8.59-2.68-11.74-4.33-2.59-1.35-7.29-5.27-10.27-8.54-.48-.53-.97-1.11-1.45-1.74-1.97-2.51-3.93-5.65-5.33-8.63-1.15-2.48-2.32-5.73-3.1-8.5-.41-1.78-.79-3.81-1.06-5.59-.22-2.12-.36-4.65-.38-6.94.09-2.23.3-4.68.55-6.56.4-1.75,1.05-4.27,1.72-6.51.68-1.98,1.5-4.11,2.19-5.61.75-1.3,1.84-2.97,3-4.59,1.42-1.85,3.13-3.94,4.41-5.33.77-.73,1.49-1.37,2.07-1.85,2.54-1.75,8.14-4.79,10.01-5.45,1.88-.66,8.51-1.63,11.44-1.41.61.05,1.42.14,2.27.26,1.82.23,3.85.56,4.67.76,1.56.39,4.87,1.71,6.36,2.41,2.75,1.3,6.6,3.98,9.57,6.67,2.43,2.22,6.46,7.31,8.13,10.28,1.55,2.78,4.13,9.1,4.76,11.65.75,3.14,1.47,9.4,1.46,12.65-.03,2.53-.99,8.71-1.81,11.58Z"/>
    <path class="cls-1" d="m225.79,238.75c-.15-.65-.47-1.23-.91-1.68-.01-.02-.02-.03-.04-.04-.05-.04-.11-.09-.16-.14-.04-.03-.06-.06-.08-.07-.11-.09-.21-.16-.32-.23-.11-.07-.21-.14-.33-.19-.13-.07-.27-.13-.41-.18-.1-.04-.19-.06-.29-.09-1.53-.53-8.68-2.86-19.46-4.82-7.56-1.37-16.89-2.55-27.33-2.79-5.74-.14-11.38.02-16.88.49-28.54,2.38-53.65,12.77-73.35,30.41-.11.1-.22.21-.33.32-.93,1-9.87,10.91-15.05,27.9-4.91,16.12-7.22,41.94,9.7,73.41.62,1.16,1.82,1.85,3.08,1.85.36,0,.72-.06,1.08-.17,1.61-.52,2.61-2.12,2.39-3.79-.08-.58-7.18-57.28,23.25-84.14,9.94,2.76,19.54,3.83,28.6,3.73,5.58-.06,10.96-.57,16.08-1.4,2.38-.38,4.7-.84,6.97-1.35,8-1.82,15.27-4.36,21.61-7.08,1.95-.84,3.85-1.71,5.69-2.6,16.47-7.94,28.16-17.47,33.03-21.79,1.51-1.33,2.36-2.17,2.5-2.31.86-.84,1.22-2.07.96-3.25Zm-145.43,86.47c-.68,5.72-.97,11.1-1.05,15.84-6.14-17.57-6.77-34.68-1.86-51.05,3.53-11.78,9.14-19.94,11.92-23.5,4.5,2.32,8.97,4.27,13.38,5.86-11.99,12.17-19.69,30.29-22.39,52.85Zm113.13-69.19c-3.94,2.2-8.24,4.36-12.85,6.33-13.13,5.62-26.08,8.69-38.79,9.21-10.48.46-20.8-.82-30.92-3.83-.27-.13-.57-.21-.86-.26-5.17-1.59-10.29-3.62-15.35-6.11,19.93-16.27,42.4-22.86,61.8-25.02,7.01-.77,13.62-.97,19.56-.84,9.37.21,17.89,1.23,24.94,2.45,5.94,1.02,10.84,2.18,14.32,3.11-4.47,3.72-12.02,9.47-21.85,14.96Z"/>
    <path class="cls-1" d="m203.06,377.15c-.86,0-1.72-.31-2.4-.95-1.41-1.33-1.48-3.54-.15-4.95,28.19-29.97,41.66-58.62,40.04-85.16-1.71-27.99-20.23-43.72-20.42-43.88-1.48-1.23-1.69-3.44-.46-4.93,1.23-1.48,3.43-1.7,4.92-.47.86.71,20.98,17.66,22.94,48.69,1.8,28.59-12.3,59.05-41.92,90.54-.69.73-1.62,1.1-2.55,1.1Z"/>
    <path class="cls-1" d="m317.69,586.45c.02,1.83-1.38,3.37-3.2,3.53-.1.01-.2.01-.3.01-1.71,0-3.18-1.23-3.46-2.94-16.43-102.26-63.11-122.77-122.21-148.73-8.52-3.74-17.31-7.61-26.28-11.84-.86-.4-1.72-.81-2.58-1.22-1.31-.62-2.59-1.26-3.85-1.9-9.92-5.01-18.35-10.42-25.27-16.21-4.99-4.16-9.2-8.52-12.61-13.07-1.89-2.5-3.53-5.06-4.92-7.67-1.68-3.13-3.01-6.34-3.99-9.62-3.21-10.78-1.9-20.05-.09-26.18,1.4-4.73,3.1-7.6,3.26-7.86.01-.02.02-.03.03-.05.11-.18.24-.34.39-.5,38.9-42.24,42.23-60.86,42.42-65.07.02-.43,0-.71,0-.85,0,.02,0,.03,0,.03l6.79-1.71c.05.2.13.59.17,1.18.4,5.04-1.64,24.83-43.97,70.86-.99,1.85-6.73,13.49-2.26,28.3.93,3.07,2.22,6.08,3.88,9.02.1.18.2.36.31.54,3.19,5.54,7.67,10.84,13.41,15.87,7.59,6.66,17.37,12.86,29.31,18.57.03.02.07.04.1.05,9.73,4.65,19.3,8.85,28.56,12.92,29.38,12.91,57.14,25.11,79.16,47.14,14.82,14.82,26.16,33.19,34.53,56.23-3.22-17.89-8.28-38.68-16.21-59.36-12.21-31.85-28.74-57.2-49.13-75.33-25.01-22.23-56.04-33.68-92.25-34-.5-.02-1-.02-1.5-.02-1.93,0-3.5-1.57-3.49-3.5,0-1.93,1.56-3.5,3.5-3.5,1.47,0,2.93.02,4.38.06,17.66.44,34.14,3.44,49.34,8.97.82.3,1.63.6,2.44.92,2.32.89,4.61,1.85,6.87,2.86h.01c12.82,5.76,24.64,13.44,35.42,23.04,21.24,18.91,38.41,45.21,51.01,78.16,21.35,55.78,22.26,112.31,22.27,112.87Z"/>
    <path class="cls-1" d="m163.97,424.2c-.56.75-1.14,1.52-1.73,2.28-14.67,19.2-36.28,42.22-62.84,55.43-5.36,2.66-10.91,4.92-16.66,6.67-9.96,3.04-18.3,3.87-24.45,3.87-3.47,0-6.24-.26-8.21-.55-2.1-.3-3.29-.62-3.46-.67-1.31-.36-2.28-1.46-2.51-2.8-.21-1.34.36-2.69,1.49-3.46,3.78-2.58,7.38-5.34,10.8-8.26,37.88-32.13,53.97-81.49,56.61-90.3.25-.84.38-1.31.39-1.36.5-1.86,2.41-2.97,4.28-2.47.83.22,1.51.72,1.97,1.38.1.18.2.36.31.54.33.72.42,1.54.2,2.36-.13.51-.84,3.1-2.23,7.22-5.85,17.4-23.74,62.05-61.1,91.34,5.73.12,14.13-.5,24.42-3.7,7.84-2.44,15.34-5.91,22.43-10.08,21.56-12.69,39.41-31.83,52.13-48.28.88-1.13,1.73-2.26,2.56-3.36,1.01-1.35,2.83-1.76,4.31-1.06.03.02.07.04.1.05.17.09.33.19.49.31,1.54,1.16,1.86,3.35.7,4.9Z"/>
    <path class="cls-1" d="m96.84,379.63c-2.19-8.81-8.6-14.22-8.92-14.48-1.2-.99-2.9-1.07-4.19-.2-.62.42-15.05,10.4-12.28,27.83,1.21,7.59,3.6,11.86,7.31,13.07.68.23,1.37.33,2.02.33,2.01,0,3.81-.92,4.99-1.96.26-.17.66-.44,1.16-.8,3.34-2.44,11.04-9.16,10.62-18.92-.07-1.72-.32-3.35-.71-4.87Zm-15.01,18.81c-.24.14-.47.31-.66.51-.01,0-.16.11-.3.18-.37-.36-1.63-1.94-2.51-7.45-1.5-9.43,3.86-16.05,7.07-19.08,2.02,2.39,4.9,6.72,5.13,12.2.34,8-8.65,13.59-8.73,13.64Z"/>
    <path class="cls-1" d="m282.23,325.8c-13.65,0-28.3-2.2-43.09-8.1-1.8-.71-2.67-2.75-1.96-4.55.71-1.8,2.75-2.67,4.55-1.96,27.91,11.12,55.44,8.24,75.83,2.69-19.37.43-35.12-5.85-46.72-13.02-22.03-13.62-33.67-32.83-34.16-33.64-.99-1.66-.45-3.81,1.21-4.8,1.66-.99,3.81-.45,4.8,1.21.18.29,11.45,18.76,32.05,31.41,27.37,16.81,57.6,15.94,89.86-2.59,1.62-.93,3.68-.43,4.69,1.14,1.01,1.57.61,3.65-.9,4.74-.65.47-16.16,11.52-39.86,19.52-12.43,4.2-28.5,7.94-46.29,7.94Z"/>
    <path class="cls-1" d="m392.71,299.55c-7.38,0-13.56-3.09-17.96-8.99-.07-.1-.14-.2-.2-.3-1.21-2.03-2.65-6.57-.38-10.7,2.64-4.81,8.95-7.3,19.29-7.6,7.15-.22,11.95,1.27,14.71,4.51,1.43,1.68,2.95,4.67,2.06,9.36-1.44,7.56-7.96,13.18-15.85,13.66-.56.03-1.11.05-1.66.05Zm-12.2-12.97c3.28,4.28,7.8,6.27,13.43,5.93,4.7-.29,8.56-3.57,9.4-7.99.46-2.39-.27-3.24-.51-3.51-1.23-1.44-4.57-2.17-9.18-2.05-10.2.3-12.73,2.86-13.34,3.94-.8,1.41-.05,3.18.19,3.68Z"/>
    <path class="cls-1" d="m420.15,607.07c-.64-1.61-2.38-2.51-4.06-2.11-.7.16-69.83,16.19-98.58-13.08-1.16-1.18-2.98-1.39-4.38-.5l-13.05,8.31c-.38.24-.7.54-.95.89-.43.58-.66,1.29-.67,2.03-.01,1.19.58,2.3,1.57,2.96,2.63,1.73,9.21,7.35,8.14,12.5-.21.96.01,1.96.58,2.76.58.8,1.46,1.32,2.44,1.43l58.09,6.77,4.77.56c.14.02.27.03.41.03.2,0,.41-.02.61-.06.71-.12,17.57-3.26,43.57-18.16,1.51-.87,2.15-2.71,1.51-4.33Zm-45.84,15.51l-29.4-3.43-29.68-3.46c-.41-4.25-2.85-7.97-5.37-10.76-.64-.71-1.3-1.37-1.92-1.95l6.63-4.22c13.49,12.26,34.6,18.22,62.88,17.73,6.38-.11,12.42-.54,17.78-1.11-11.49,4.98-19.03,6.79-20.92,7.2Z"/>
    <path class="cls-1" d="m545.9,778.73c-.4,0-.81-.07-1.21-.22-1.81-.67-2.74-2.68-2.07-4.5l199.82-541.52c.67-1.81,2.68-2.74,4.5-2.07,1.81.67,2.74,2.68,2.07,4.5l-199.82,541.52c-.52,1.41-1.86,2.29-3.28,2.29Z"/>
    <path class="cls-1" d="m595.11,778.73c-.4,0-.81-.07-1.21-.22-1.81-.67-2.74-2.68-2.07-4.5l199.82-541.52c.67-1.81,2.68-2.74,4.5-2.07,1.81.67,2.74,2.68,2.07,4.5l-199.82,541.52c-.52,1.41-1.86,2.29-3.28,2.29Z"/>
  </g>
</svg>