<svg width="24" height="24" viewBox="0 0 24 24" fill="none" xmlns="http://www.w3.org/2000/svg">
<path d="M3.8602 13.71L18.0002 22.18C18.3026 22.3546 18.6455 22.447 18.9947 22.448C19.3439 22.449 19.6873 22.3585 19.9907 22.1856C20.2941 22.0126 20.547 21.7633 20.7241 21.4623C20.9012 21.1613 20.9964 20.8192 21.0002 20.47L21.0002 3.53C20.9964 3.1808 20.9012 2.83869 20.7241 2.53771C20.547 2.23673 20.2941 1.98736 19.9907 1.81443C19.6873 1.64149 19.3439 1.55101 18.9947 1.55199C18.6455 1.55297 18.3026 1.64537 18.0002 1.82L3.8602 10.29C3.56631 10.4683 3.32332 10.7193 3.15469 11.0188C2.98605 11.3183 2.89746 11.6563 2.89746 12C2.89746 12.3437 2.98605 12.6817 3.15469 12.9812C3.32332 13.2807 3.56631 13.5317 3.8602 13.71Z" fill="#D1D6DB"/>
</svg>
