<svg width="24" height="24" viewBox="0 0 24 24" fill="none" xmlns="http://www.w3.org/2000/svg">
<path d="M20.1398 10.29L5.99979 1.82C5.69737 1.64537 5.3545 1.55297 5.00528 1.55199C4.65606 1.55101 4.31267 1.64149 4.00927 1.81443C3.70587 1.98736 3.45305 2.23673 3.27594 2.53771C3.09884 2.83869 3.00363 3.1808 2.99979 3.53L2.99979 20.47C3.00363 20.8192 3.09884 21.1613 3.27594 21.4623C3.45305 21.7633 3.70587 22.0126 4.00927 22.1856C4.31266 22.3585 4.65605 22.449 5.00527 22.448C5.3545 22.447 5.69737 22.3546 5.99979 22.18L20.1398 13.71C20.4337 13.5317 20.6767 13.2807 20.8453 12.9812C21.0139 12.6817 21.1025 12.3437 21.1025 12C21.1025 11.6563 21.0139 11.3183 20.8453 11.0188C20.6767 10.7193 20.4337 10.4683 20.1398 10.29Z" fill="#D1D6DB"/>
</svg>
